<svg xmlns="http://www.w3.org/2000/svg" width="24" height="24" viewBox="0 0 24 24" fill="none" stroke="currentColor" stroke-width="1.7" stroke-linecap="round" stroke-linejoin="round">
  <path d="M8.12 6.15c1.26-.55 2.57-.9 3.88-1.01M15.88 6.15a14.43 14.43 0 0 0-3.88-1.01"/>
  <path d="M6.6 17.23c1.2.92 2.57 1.59 4.01 1.95M17.4 17.23a11.77 11.77 0 0 1-4.01 1.95"/>
  <path d="M8.56 14.24c-.7 0-1.26-.72-1.26-1.6s.57-1.6 1.26-1.6 1.26.72 1.26 1.6-.56 1.6-1.26 1.6M15.44 14.24c-.7 0-1.26-.72-1.26-1.6s.57-1.6 1.26-1.6 1.26.72 1.26 1.6-.56 1.6-1.26 1.6"/>
  <path d="M19.13 5.09A17.5 17.5 0 0 0 14.78 4l-.52 1.08A16.22 16.22 0 0 0 12 4.96c-.76 0-1.52.04-2.26.12L9.22 4A17.5 17.5 0 0 0 4.87 5.09C2.1 9.28 1.37 13.36 1.73 17.39 3.43 18.67 5.06 19.46 6.66 20a.07.07 0 0 0 .08-.03l1.15-1.62a11.06 11.06 0 0 1-2.8-1.37c.24-.18.47-.37.68-.57 2.66 1.29 5.8 1.29 8.46 0 .22.2.45.4.68.57a11.06 11.06 0 0 1-2.8 1.37L13.26 20a.07.07 0 0 0 .07.03c1.6-.54 3.24-1.33 4.93-2.61.42-4.46-.72-8.5-2.97-12"/>
</svg>
