<svg width="1440" height="887" viewBox="0 0 1440 887" fill="none" xmlns="http://www.w3.org/2000/svg">
<rect width="1440" height="887" fill="#8023C3"></rect>
<g opacity="0.3" clip-path="url(#clip0_30243_138531)">
<mask id="mask0_30243_138531" style="mask-type:alpha" maskUnits="userSpaceOnUse" x="0" y="-366" width="1507" height="689">
<rect y="-366" width="1507" height="689" fill="url(#paint0_linear_30243_138531)"></rect>
</mask>
<g mask="url(#mask0_30243_138531)">
<path fill-rule="evenodd" clip-rule="evenodd" d="M91.0333 199.438C84.8238 199.445 78.8707 201.915 74.4799 206.306C70.0891 210.697 67.6191 216.65 67.6119 222.859C67.6191 229.069 70.0891 235.022 74.4799 239.413C78.8707 243.804 84.8238 246.274 91.0333 246.281C97.2425 246.273 103.195 243.803 107.585 239.412C111.976 235.021 114.445 229.069 114.452 222.859C114.445 216.65 111.976 210.697 107.585 206.307C103.195 201.916 97.2425 199.446 91.0333 199.438ZM91.0333 236.769C87.3456 236.765 83.81 235.298 81.2023 232.69C78.5947 230.083 77.1278 226.547 77.1236 222.859C77.1278 219.172 78.5947 215.636 81.2023 213.028C83.81 210.421 87.3456 208.954 91.0333 208.95C94.7209 208.954 98.2563 210.421 100.864 213.028C103.471 215.636 104.937 219.172 104.941 222.859C104.937 226.547 103.47 230.082 100.863 232.69C98.2557 235.297 94.7207 236.764 91.0333 236.769Z" fill="white"></path>
<path d="M52.4732 245.347H61.8467V200.372H52.4732V245.347Z" fill="white"></path>
<path d="M120.217 245.347H129.591V200.372H120.217V245.347Z" fill="white"></path>
<path d="M144.01 245.347H134.636V200.372H144.01V245.347Z" fill="white"></path>
<path d="M149.053 245.347H158.427V200.372H149.053V245.347Z" fill="white"></path>
<path d="M216.798 245.347H226.172V200.372H216.798V245.347Z" fill="white"></path>
<path fill-rule="evenodd" clip-rule="evenodd" d="M255.359 199.438C249.149 199.445 243.196 201.915 238.805 206.306C234.415 210.697 231.945 216.65 231.938 222.859C231.945 229.069 234.415 235.022 238.805 239.413C243.196 243.804 249.149 246.274 255.359 246.281C261.568 246.273 267.521 243.803 271.911 239.412C276.301 235.021 278.771 229.069 278.778 222.859C278.771 216.65 276.301 210.697 271.911 206.307C267.521 201.916 261.568 199.446 255.359 199.438ZM255.359 236.769C251.671 236.765 248.136 235.298 245.528 232.69C242.92 230.083 241.453 226.547 241.449 222.859C241.453 219.172 242.92 215.636 245.528 213.028C248.136 210.421 251.671 208.954 255.359 208.95C259.047 208.954 262.582 210.421 265.189 213.028C267.797 215.636 269.263 219.172 269.266 222.859C269.262 226.547 267.796 230.082 265.189 232.69C262.581 235.297 259.046 236.764 255.359 236.769Z" fill="white"></path>
<path d="M346.523 245.347H337.15V200.372H346.523V245.347Z" fill="white"></path>
<path d="M420.032 245.347H429.406V200.372H420.032V245.347Z" fill="white"></path>
<path d="M487.777 245.347H497.151V200.372H487.777V245.347Z" fill="white"></path>
<path d="M516.613 245.347H525.987V200.372H516.613V245.347Z" fill="white"></path>
<path fill-rule="evenodd" clip-rule="evenodd" d="M555.174 222.157C548.964 222.165 543.011 224.635 538.621 229.025C534.23 233.416 531.76 239.369 531.753 245.579C531.76 251.788 534.23 257.742 538.621 262.132C543.011 266.523 548.964 268.993 555.174 269C561.383 268.992 567.336 266.522 571.726 262.132C576.116 257.741 578.586 251.788 578.593 245.579C578.586 239.37 576.116 233.417 571.726 229.026C567.336 224.635 561.383 222.165 555.174 222.157ZM555.174 259.489C551.486 259.484 547.951 258.018 545.343 255.41C542.735 252.802 541.268 249.267 541.264 245.579C541.268 241.891 542.735 238.356 545.343 235.748C547.951 233.14 551.486 231.673 555.174 231.669C558.862 231.673 562.397 233.14 565.004 235.748C567.612 238.356 569.078 241.891 569.081 245.579C569.077 249.266 567.611 252.801 565.004 255.409C562.396 258.017 558.861 259.484 555.174 259.489Z" fill="white"></path>
<path d="M584.358 245.347H593.731V200.372H584.358V245.347Z" fill="white"></path>
<path fill-rule="evenodd" clip-rule="evenodd" d="M658.97 206.306C663.361 201.915 669.314 199.445 675.524 199.438C681.733 199.446 687.686 201.916 692.076 206.307C696.466 210.697 698.936 216.65 698.943 222.859C698.936 229.069 696.466 235.021 692.076 239.412C687.686 243.803 681.733 246.273 675.524 246.281C669.314 246.274 663.361 243.804 658.97 239.413C654.58 235.022 652.11 229.069 652.103 222.859C652.11 216.65 654.58 210.697 658.97 206.306ZM665.693 232.69C668.301 235.298 671.836 236.765 675.524 236.769C679.211 236.764 682.746 235.297 685.354 232.69C687.961 230.082 689.427 226.547 689.431 222.859C689.428 219.172 687.961 215.636 685.354 213.028C682.747 210.421 679.212 208.954 675.524 208.95C671.836 208.954 668.301 210.421 665.693 213.028C663.085 215.636 661.618 219.172 661.614 222.859C661.618 226.547 663.085 230.083 665.693 232.69Z" fill="white"></path>
<path d="M714.082 245.347H704.709V200.372H714.082V245.347Z" fill="white"></path>
<path d="M719.127 312.975H728.5V268H719.127V312.975Z" fill="white"></path>
<path d="M675.894 193.099H666.521V148.124H675.894V193.099Z" fill="white"></path>
<path fill-rule="evenodd" clip-rule="evenodd" d="M637.334 147.19C643.544 147.197 649.497 149.667 653.888 154.058C658.278 158.449 660.748 164.402 660.755 170.612C660.748 176.821 658.278 182.774 653.888 187.165C649.497 191.556 643.544 194.026 637.334 194.033C631.125 194.025 625.172 191.555 620.782 187.164C616.392 182.774 613.922 176.821 613.915 170.612C613.922 164.402 616.392 158.45 620.782 154.059C625.172 149.668 631.125 147.198 637.334 147.19ZM637.334 184.521C641.022 184.517 644.557 183.05 647.165 180.443C649.773 177.835 651.24 174.299 651.244 170.612C651.24 166.924 649.773 163.388 647.165 160.781C644.557 158.173 641.022 156.706 637.334 156.702C633.646 156.706 630.111 158.173 627.504 160.781C624.896 163.388 623.43 166.924 623.427 170.612C623.431 174.299 624.897 177.834 627.504 180.442C630.112 183.049 633.647 184.517 637.334 184.521Z" fill="white"></path>
<path d="M608.149 193.099H598.776V148.124H608.149V193.099Z" fill="white"></path>
<path d="M584.358 193.099H593.731V148.124H584.358V193.099Z" fill="white"></path>
<path d="M579.313 193.099H569.94V148.124H579.313V193.099Z" fill="white"></path>
<path fill-rule="evenodd" clip-rule="evenodd" d="M436.956 154.058C432.565 149.667 426.612 147.197 420.402 147.19C414.193 147.198 408.241 149.668 403.85 154.059C399.46 158.45 396.99 164.402 396.983 170.612C396.99 176.821 399.46 182.774 403.85 187.164C408.241 191.555 414.193 194.025 420.402 194.033C426.612 194.026 432.565 191.556 436.956 187.165C441.347 182.774 443.817 176.821 443.824 170.612C443.817 164.402 441.347 158.449 436.956 154.058ZM430.233 180.443C427.626 183.05 424.09 184.517 420.402 184.521C416.715 184.517 413.18 183.049 410.573 180.442C407.966 177.834 406.499 174.299 406.495 170.612C406.499 166.924 407.965 163.388 410.572 160.781C413.179 158.173 416.715 156.706 420.402 156.702C424.09 156.706 427.626 158.173 430.233 160.781C432.841 163.388 434.308 166.924 434.312 170.612C434.308 174.299 432.841 177.835 430.233 180.443Z" fill="white"></path>
<path d="M376.8 193.099H367.426V148.124H376.8V193.099Z" fill="white"></path>
<path fill-rule="evenodd" clip-rule="evenodd" d="M337.52 147.19C343.729 147.197 349.682 149.667 354.073 154.058C358.464 158.449 360.934 164.402 360.941 170.612C360.934 176.821 358.464 182.774 354.073 187.165C349.682 191.556 343.729 194.026 337.52 194.033C331.311 194.025 325.358 191.555 320.968 187.164C316.577 182.774 314.108 176.821 314.101 170.612C314.108 164.402 316.577 158.45 320.968 154.059C325.358 149.668 331.311 147.198 337.52 147.19ZM337.52 184.521C341.207 184.517 344.743 183.05 347.351 180.443C349.958 177.835 351.425 174.299 351.429 170.612C351.425 166.924 349.958 163.388 347.351 160.781C344.743 158.173 341.207 156.706 337.52 156.702C333.832 156.706 330.297 158.173 327.689 160.781C325.082 163.388 323.616 166.924 323.612 170.612C323.616 174.299 325.083 177.834 327.69 180.442C330.297 183.049 333.832 184.517 337.52 184.521Z" fill="white"></path>
<path d="M240.59 193.099H231.216V148.124H240.59V193.099Z" fill="white"></path>
<path d="M216.799 193.099H226.172V148.124H216.799V193.099Z" fill="white"></path>
<path d="M211.753 193.099H202.38V148.124H211.753V193.099Z" fill="white"></path>
<path fill-rule="evenodd" clip-rule="evenodd" d="M173.194 147.19C179.404 147.197 185.357 149.667 189.748 154.058C194.138 158.449 196.608 164.402 196.615 170.612C196.608 176.821 194.138 182.774 189.748 187.165C185.357 191.556 179.404 194.026 173.194 194.033C166.985 194.025 161.032 191.555 156.642 187.164C152.252 182.774 149.782 176.821 149.775 170.612C149.782 164.402 152.252 158.45 156.642 154.059C161.032 149.668 166.985 147.198 173.194 147.19ZM173.194 184.521C176.882 184.517 180.417 183.05 183.025 180.443C185.633 177.835 187.1 174.299 187.104 170.612C187.1 166.924 185.633 163.388 183.025 160.781C180.417 158.173 176.882 156.706 173.194 156.702C169.506 156.706 165.971 158.173 163.364 160.781C160.757 163.388 159.29 166.924 159.287 170.612C159.291 174.299 160.757 177.834 163.364 180.442C165.972 183.049 169.507 184.517 173.194 184.521Z" fill="white"></path>
<path d="M144.009 193.099H134.636V148.124H144.009V193.099Z" fill="white"></path>
<path fill-rule="evenodd" clip-rule="evenodd" d="M105.449 147.19C111.659 147.197 117.612 149.667 122.003 154.058C126.394 158.449 128.864 164.402 128.871 170.612C128.864 176.821 126.394 182.774 122.003 187.165C117.612 191.556 111.659 194.026 105.449 194.033C99.2402 194.025 93.2876 191.555 88.8973 187.164C84.507 182.774 82.0374 176.821 82.0302 170.612C82.0374 164.402 84.507 158.45 88.8973 154.059C93.2876 149.668 99.2402 147.198 105.449 147.19ZM105.449 184.521C109.137 184.517 112.673 183.05 115.28 180.443C117.888 177.835 119.355 174.299 119.359 170.612C119.355 166.924 117.888 163.388 115.28 160.781C112.673 158.173 109.137 156.706 105.449 156.702C101.762 156.706 98.2264 158.173 95.6191 160.781C93.0118 163.388 91.5455 166.924 91.5419 170.612C91.5461 174.299 93.0126 177.834 95.6198 180.442C98.227 183.049 101.762 184.517 105.449 184.521Z" fill="white"></path>
<path fill-rule="evenodd" clip-rule="evenodd" d="M69.3969 154.058C65.0061 149.667 59.0529 147.197 52.8434 147.19C46.6342 147.198 40.6817 149.668 36.2913 154.059C31.901 158.45 29.4314 164.402 29.4242 170.612C29.4314 176.821 31.901 182.774 36.2913 187.164C40.6817 191.555 46.6342 194.025 52.8434 194.033C59.0529 194.026 65.0061 191.556 69.3969 187.165C73.7877 182.774 76.2576 176.821 76.2648 170.612C76.2576 164.402 73.7877 158.449 69.3969 154.058ZM62.6744 180.443C60.0667 183.05 56.5312 184.517 52.8434 184.521C49.156 184.517 45.621 183.049 43.0138 180.442C40.4066 177.834 38.9401 174.299 38.9359 170.612C38.9395 166.924 40.4058 163.388 43.0132 160.781C45.6205 158.173 49.1558 156.706 52.8434 156.702C56.5312 156.706 60.0667 158.173 62.6744 160.781C65.2821 163.388 66.7489 166.924 66.7531 170.612C66.7489 174.299 65.2821 177.835 62.6744 180.443Z" fill="white"></path>
<path d="M14.2853 193.099H23.6588V148.124H14.2853V193.099Z" fill="white"></path>
<path d="M52.4732 140.851H61.8467V95.8767H52.4732V140.851Z" fill="white"></path>
<path d="M120.217 140.851H129.591V95.8767H120.217V140.851Z" fill="white"></path>
<path d="M149.053 140.851H158.427V95.8767H149.053V140.851Z" fill="white"></path>
<path fill-rule="evenodd" clip-rule="evenodd" d="M187.614 94.9425C181.405 94.9497 175.452 97.4196 171.061 101.81C166.67 106.201 164.2 112.154 164.193 118.364C164.2 124.573 166.67 130.527 171.061 134.917C175.452 139.308 181.405 141.778 187.614 141.785C193.823 141.777 199.776 139.307 204.166 134.917C208.557 130.526 211.026 124.573 211.033 118.364C211.026 112.155 208.557 106.202 204.166 101.811C199.776 97.4204 193.823 94.9503 187.614 94.9425ZM187.614 132.274C183.926 132.269 180.391 130.803 177.783 128.195C175.176 125.587 173.709 122.052 173.705 118.364C173.709 114.676 175.176 111.141 177.783 108.533C180.391 105.925 183.926 104.458 187.614 104.454C191.302 104.458 194.837 105.925 197.444 108.533C200.052 111.141 201.518 114.676 201.522 118.364C201.518 122.051 200.051 125.586 197.444 128.194C194.837 130.802 191.302 132.269 187.614 132.274Z" fill="white"></path>
<path d="M216.798 140.851H226.172V95.8767H216.798V140.851Z" fill="white"></path>
<path fill-rule="evenodd" clip-rule="evenodd" d="M255.359 94.9425C249.149 94.9497 243.196 97.4196 238.805 101.81C234.415 106.201 231.945 112.154 231.938 118.364C231.945 124.573 234.415 130.527 238.805 134.917C243.196 139.308 249.149 141.778 255.359 141.785C261.568 141.777 267.521 139.307 271.911 134.917C276.301 130.526 278.771 124.573 278.778 118.364C278.771 112.155 276.301 106.202 271.911 101.811C267.521 97.4204 261.568 94.9503 255.359 94.9425ZM255.359 132.274C251.671 132.269 248.136 130.803 245.528 128.195C242.92 125.587 241.453 122.052 241.449 118.364C241.453 114.676 242.92 111.141 245.528 108.533C248.136 105.925 251.671 104.458 255.359 104.454C259.047 104.458 262.582 105.925 265.189 108.533C267.797 111.141 269.263 114.676 269.266 118.364C269.262 122.051 267.796 125.586 265.189 128.194C262.581 130.802 259.046 132.269 255.359 132.274Z" fill="white"></path>
<path d="M346.523 140.851H337.15V95.8767H346.523V140.851Z" fill="white"></path>
<path d="M351.567 140.851H360.94V95.8767H351.567V140.851Z" fill="white"></path>
<path d="M420.032 140.851H429.406V95.8767H420.032V140.851Z" fill="white"></path>
<path d="M487.777 140.851H497.151V95.8767H487.777V140.851Z" fill="white"></path>
<path d="M511.569 140.851H502.195V95.8767H511.569V140.851Z" fill="white"></path>
<path fill-rule="evenodd" clip-rule="evenodd" d="M555.174 94.9425C548.964 94.9497 543.011 97.4196 538.621 101.81C534.23 106.201 531.76 112.154 531.753 118.364C531.76 124.573 534.23 130.527 538.621 134.917C543.011 139.308 548.964 141.778 555.174 141.785C561.383 141.777 567.336 139.307 571.726 134.917C576.116 130.526 578.586 124.573 578.593 118.364C578.586 112.155 576.116 106.202 571.726 101.811C567.336 97.4204 561.383 94.9503 555.174 94.9425ZM555.174 132.274C551.486 132.269 547.951 130.803 545.343 128.195C542.735 125.587 541.268 122.052 541.264 118.364C541.268 114.676 542.735 111.141 545.343 108.533C547.951 105.925 551.486 104.458 555.174 104.454C558.862 104.458 562.397 105.925 565.004 108.533C567.612 111.141 569.078 114.676 569.081 118.364C569.077 122.051 567.611 125.586 565.004 128.194C562.396 130.802 558.861 132.269 555.174 132.274Z" fill="white"></path>
<path d="M584.358 140.851H593.731V95.8767H584.358V140.851Z" fill="white"></path>
<path fill-rule="evenodd" clip-rule="evenodd" d="M705.079 42.6948C711.288 42.702 717.241 45.1718 721.632 49.5627C726.023 53.9535 728.493 59.9066 728.5 66.1161C728.493 72.3257 726.023 78.2788 721.632 82.6696C717.241 87.0604 711.288 89.5303 705.079 89.5375C698.87 89.5297 692.917 87.0596 688.527 82.6688C684.136 78.2781 681.667 72.3253 681.66 66.1161C681.667 59.907 684.136 53.9542 688.527 49.5635C692.917 45.1727 698.87 42.7025 705.079 42.6948ZM705.079 80.0258C708.766 80.0217 712.302 78.5548 714.91 75.9472C717.517 73.3395 718.984 69.8039 718.988 66.1161C718.984 62.4284 717.517 58.8928 714.91 56.2851C712.302 53.6775 708.766 52.2106 705.079 52.2064C701.391 52.2106 697.856 53.6776 695.248 56.2853C692.641 58.893 691.175 62.4286 691.171 66.1161C691.175 69.8036 692.642 73.3388 695.249 75.9464C697.856 78.554 701.391 80.0211 705.079 80.0258Z" fill="white"></path>
<path d="M675.894 88.6034H666.521V43.6289H675.894V88.6034Z" fill="white"></path>
<path fill-rule="evenodd" clip-rule="evenodd" d="M637.334 42.6948C643.544 42.702 649.497 45.1718 653.888 49.5627C658.278 53.9535 660.748 59.9066 660.755 66.1161C660.748 72.3257 658.278 78.2788 653.888 82.6696C649.497 87.0604 643.544 89.5303 637.334 89.5375C631.125 89.5297 625.172 87.0596 620.782 82.6688C616.392 78.2781 613.922 72.3253 613.915 66.1161C613.922 59.907 616.392 53.9542 620.782 49.5635C625.172 45.1727 631.125 42.7025 637.334 42.6948ZM637.334 80.0258C641.022 80.0217 644.557 78.5548 647.165 75.9472C649.773 73.3395 651.24 69.8039 651.244 66.1161C651.24 62.4284 649.773 58.8928 647.165 56.2851C644.557 53.6775 641.022 52.2106 637.334 52.2064C633.646 52.2106 630.111 53.6776 627.504 56.2853C624.896 58.893 623.43 62.4286 623.427 66.1161C623.431 69.8036 624.897 73.3388 627.504 75.9464C630.112 78.554 633.647 80.0211 637.334 80.0258Z" fill="white"></path>
<path d="M608.149 88.6034H598.776V43.6289H608.149V88.6034Z" fill="white"></path>
<path d="M584.358 88.6034H593.731V43.6289H584.358V88.6034Z" fill="white"></path>
<path d="M579.313 88.6034H569.94V43.6289H579.313V88.6034Z" fill="white"></path>
<path fill-rule="evenodd" clip-rule="evenodd" d="M540.753 42.6948C546.963 42.702 552.916 45.1718 557.307 49.5627C561.697 53.9535 564.167 59.9066 564.174 66.1161C564.167 72.3257 561.697 78.2788 557.307 82.6696C552.916 87.0604 546.963 89.5303 540.753 89.5375C534.544 89.5297 528.591 87.0596 524.201 82.6688C519.811 78.2781 517.341 72.3253 517.334 66.1161C517.341 59.907 519.811 53.9542 524.201 49.5635C528.591 45.1727 534.544 42.7025 540.753 42.6948ZM540.753 80.0258C544.441 80.0217 547.977 78.5548 550.584 75.9472C553.192 73.3395 554.659 69.8039 554.663 66.1161C554.659 62.4284 553.192 58.8928 550.584 56.2851C547.977 53.6775 544.441 52.2106 540.753 52.2064C537.066 52.2106 533.53 53.6776 530.923 56.2853C528.316 58.893 526.849 62.4286 526.846 66.1161C526.85 69.8036 528.316 73.3388 530.924 75.9464C533.531 78.554 537.066 80.0211 540.753 80.0258Z" fill="white"></path>
<path d="M511.569 88.6034H502.195V43.6289H511.569V88.6034Z" fill="white"></path>
<path fill-rule="evenodd" clip-rule="evenodd" d="M436.956 49.5627C432.565 45.1718 426.612 42.702 420.402 42.6948C414.193 42.7025 408.241 45.1727 403.85 49.5635C399.46 53.9542 396.99 59.907 396.983 66.1161C396.99 72.3253 399.46 78.2781 403.85 82.6688C408.241 87.0596 414.193 89.5297 420.402 89.5375C426.612 89.5303 432.565 87.0604 436.956 82.6696C441.347 78.2788 443.817 72.3257 443.824 66.1161C443.817 59.9066 441.347 53.9535 436.956 49.5627ZM430.233 75.9472C427.626 78.5548 424.09 80.0217 420.402 80.0258C416.715 80.0211 413.18 78.554 410.573 75.9464C407.966 73.3388 406.499 69.8036 406.495 66.1161C406.499 62.4286 407.965 58.893 410.572 56.2853C413.179 53.6776 416.715 52.2106 420.402 52.2064C424.09 52.2106 427.626 53.6775 430.233 56.2851C432.841 58.8928 434.308 62.4284 434.312 66.1161C434.308 69.8039 432.841 73.3395 430.233 75.9472Z" fill="white"></path>
<path d="M376.8 88.6034H367.426V43.6289H376.8V88.6034Z" fill="white"></path>
<path fill-rule="evenodd" clip-rule="evenodd" d="M337.52 42.6948C343.729 42.702 349.682 45.1718 354.073 49.5627C358.464 53.9535 360.934 59.9066 360.941 66.1161C360.934 72.3257 358.464 78.2788 354.073 82.6696C349.682 87.0604 343.729 89.5303 337.52 89.5375C331.311 89.5297 325.358 87.0596 320.968 82.6688C316.577 78.2781 314.108 72.3253 314.101 66.1161C314.108 59.907 316.577 53.9542 320.968 49.5635C325.358 45.1727 331.311 42.7025 337.52 42.6948ZM337.52 80.0258C341.207 80.0217 344.743 78.5548 347.351 75.9472C349.958 73.3395 351.425 69.8039 351.429 66.1161C351.425 62.4284 349.958 58.8928 347.351 56.2851C344.743 53.6775 341.207 52.2106 337.52 52.2064C333.832 52.2106 330.297 53.6776 327.689 56.2853C325.082 58.893 323.616 62.4286 323.612 66.1161C323.616 69.8036 325.083 73.3388 327.69 75.9464C330.297 78.554 333.832 80.0211 337.52 80.0258Z" fill="white"></path>
<path d="M308.334 88.6034H298.961V43.6289H308.334V88.6034Z" fill="white"></path>
<path fill-rule="evenodd" clip-rule="evenodd" d="M269.775 42.6948C275.984 42.702 281.938 45.1718 286.328 49.5627C290.719 53.9535 293.189 59.9066 293.196 66.1161C293.189 72.3257 290.719 78.2788 286.328 82.6696C281.938 87.0604 275.984 89.5303 269.775 89.5375C263.566 89.5297 257.613 87.0596 253.223 82.6688C248.833 78.2781 246.363 72.3253 246.356 66.1161C246.363 59.907 248.833 53.9542 253.223 49.5635C257.613 45.1727 263.566 42.7025 269.775 42.6948ZM269.775 80.0258C273.463 80.0217 276.998 78.5548 279.606 75.9472C282.214 73.3395 283.68 69.8039 283.685 66.1161C283.68 62.4284 282.214 58.8928 279.606 56.2851C276.998 53.6775 273.463 52.2106 269.775 52.2064C266.087 52.2106 262.552 53.6776 259.945 56.2853C257.337 58.893 255.871 62.4286 255.867 66.1161C255.872 69.8036 257.338 73.3388 259.945 75.9464C262.553 78.554 266.088 80.0211 269.775 80.0258Z" fill="white"></path>
<path d="M240.59 88.6034H231.216V43.6289H240.59V88.6034Z" fill="white"></path>
<path d="M216.799 88.6034H226.172V43.6289H216.799V88.6034Z" fill="white"></path>
<path d="M211.753 88.6034H202.38V43.6289H211.753V88.6034Z" fill="white"></path>
<path fill-rule="evenodd" clip-rule="evenodd" d="M173.194 42.6948C179.404 42.702 185.357 45.1718 189.748 49.5627C194.138 53.9535 196.608 59.9066 196.615 66.1161C196.608 72.3257 194.138 78.2788 189.748 82.6696C185.357 87.0604 179.404 89.5303 173.194 89.5375C166.985 89.5297 161.032 87.0596 156.642 82.6688C152.252 78.2781 149.782 72.3253 149.775 66.1161C149.782 59.907 152.252 53.9542 156.642 49.5635C161.032 45.1727 166.985 42.7025 173.194 42.6948ZM173.194 80.0258C176.882 80.0217 180.417 78.5548 183.025 75.9472C185.633 73.3395 187.1 69.8039 187.104 66.1161C187.1 62.4284 185.633 58.8928 183.025 56.2851C180.417 53.6775 176.882 52.2106 173.194 52.2064C169.506 52.2106 165.971 53.6776 163.364 56.2853C160.757 58.893 159.29 62.4286 159.287 66.1161C159.291 69.8036 160.757 73.3388 163.364 75.9464C165.972 78.554 169.507 80.0211 173.194 80.0258Z" fill="white"></path>
<path d="M144.009 88.6034H134.636V43.6289H144.009V88.6034Z" fill="white"></path>
<path fill-rule="evenodd" clip-rule="evenodd" d="M105.449 42.6948C111.659 42.702 117.612 45.1718 122.003 49.5627C126.394 53.9535 128.864 59.9066 128.871 66.1161C128.864 72.3257 126.394 78.2788 122.003 82.6696C117.612 87.0604 111.659 89.5303 105.449 89.5375C99.2402 89.5297 93.2876 87.0596 88.8973 82.6688C84.507 78.2781 82.0374 72.3253 82.0302 66.1161C82.0374 59.907 84.507 53.9542 88.8973 49.5635C93.2876 45.1727 99.2402 42.7025 105.449 42.6948ZM105.449 80.0258C109.137 80.0217 112.673 78.5548 115.28 75.9472C117.888 73.3395 119.355 69.8039 119.359 66.1161C119.355 62.4284 117.888 58.8928 115.28 56.2851C112.673 53.6775 109.137 52.2106 105.449 52.2064C101.762 52.2106 98.2264 53.6776 95.6191 56.2853C93.0118 58.893 91.5455 62.4286 91.5419 66.1161C91.5461 69.8036 93.0126 73.3388 95.6198 75.9464C98.227 78.554 101.762 80.0211 105.449 80.0258Z" fill="white"></path>
<path fill-rule="evenodd" clip-rule="evenodd" d="M69.3969 49.5627C65.0061 45.1718 59.0529 42.702 52.8434 42.6948C46.6342 42.7025 40.6817 45.1727 36.2913 49.5635C31.901 53.9542 29.4314 59.907 29.4242 66.1161C29.4314 72.3253 31.901 78.2781 36.2913 82.6688C40.6817 87.0596 46.6342 89.5297 52.8434 89.5375C59.0529 89.5303 65.0061 87.0604 69.3969 82.6696C73.7877 78.2788 76.2576 72.3257 76.2648 66.1161C76.2576 59.9066 73.7877 53.9535 69.3969 49.5627ZM62.6744 75.9472C60.0667 78.5548 56.5312 80.0217 52.8434 80.0258C49.156 80.0211 45.621 78.554 43.0138 75.9464C40.4066 73.3388 38.9401 69.8036 38.9359 66.1161C38.9395 62.4286 40.4058 58.893 43.0132 56.2853C45.6205 53.6776 49.1558 52.2106 52.8434 52.2064C56.5312 52.2106 60.0667 53.6775 62.6744 56.2851C65.2821 58.8928 66.7489 62.4284 66.7531 66.1161C66.7489 69.8039 65.2821 73.3395 62.6744 75.9472Z" fill="white"></path>
<path d="M14.2853 88.6034H23.6588V43.6289H14.2853V88.6034Z" fill="white"></path>
<path d="M9.24072 88.6034H-0.132812V43.6289H9.24072V88.6034Z" fill="white"></path>
<path fill-rule="evenodd" clip-rule="evenodd" d="M23.2886 -9.55301C17.0791 -9.54581 11.126 -7.0759 6.73515 -2.68509C2.34434 1.70572 -0.125575 7.65884 -0.132768 13.8684C-0.125575 20.0779 2.34434 26.031 6.73515 30.4219C11.126 34.8127 17.0791 37.2826 23.2886 37.2898C29.4978 37.282 35.4503 34.8118 39.8407 30.4211C44.231 26.0304 46.7006 20.0775 46.7078 13.8684C46.7006 7.65924 44.231 1.70645 39.8407 -2.68427C35.4503 -7.07501 29.4978 -9.5452 23.2886 -9.55301ZM23.2886 27.7781C19.6008 27.7739 16.0653 26.3071 13.4576 23.6994C10.8499 21.0917 9.38312 17.5562 9.37892 13.8684C9.38312 10.1806 10.8499 6.64505 13.4576 4.03738C16.0653 1.42972 19.6008 -0.0371094 23.2886 -0.0413208C26.9762 -0.0371094 30.5115 1.42978 33.1188 4.03751C35.7262 6.64523 37.1925 10.1808 37.1961 13.8684C37.1919 17.5558 35.7254 21.091 33.1182 23.6986C30.511 26.3062 26.976 27.7733 23.2886 27.7781Z" fill="white"></path>
<path d="M52.4732 36.3556H61.8467V-8.6188H52.4732V36.3556Z" fill="white"></path>
<path fill-rule="evenodd" clip-rule="evenodd" d="M91.0333 -9.55301C84.8238 -9.54581 78.8707 -7.0759 74.4799 -2.68509C70.0891 1.70572 67.6191 7.65884 67.6119 13.8684C67.6191 20.0779 70.0891 26.031 74.4799 30.4219C78.8707 34.8127 84.8238 37.2826 91.0333 37.2898C97.2425 37.282 103.195 34.8118 107.585 30.4211C111.976 26.0304 114.445 20.0775 114.452 13.8684C114.445 7.65924 111.976 1.70645 107.585 -2.68427C103.195 -7.07501 97.2425 -9.5452 91.0333 -9.55301ZM91.0333 27.7781C87.3456 27.7739 83.81 26.3071 81.2023 23.6994C78.5947 21.0917 77.1278 17.5562 77.1236 13.8684C77.1278 10.1806 78.5947 6.64505 81.2023 4.03738C83.81 1.42972 87.3456 -0.0371094 91.0333 -0.0413208C94.7209 -0.0371094 98.2563 1.42978 100.864 4.03751C103.471 6.64523 104.937 10.1808 104.941 13.8684C104.937 17.5558 103.47 21.091 100.863 23.6986C98.2557 26.3062 94.7207 27.7733 91.0333 27.7781Z" fill="white"></path>
<path d="M120.217 36.3556H129.591V-8.6188H120.217V36.3556Z" fill="white"></path>
<path d="M144.01 36.3556H134.636V-8.6188H144.01V36.3556Z" fill="white"></path>
<path d="M149.053 36.3556H158.427V-8.6188H149.053V36.3556Z" fill="white"></path>
<path fill-rule="evenodd" clip-rule="evenodd" d="M187.614 -9.55301C181.405 -9.54581 175.452 -7.0759 171.061 -2.68509C166.67 1.70572 164.2 7.65884 164.193 13.8684C164.2 20.0779 166.67 26.031 171.061 30.4219C175.452 34.8127 181.405 37.2826 187.614 37.2898C193.823 37.282 199.776 34.8118 204.166 30.4211C208.557 26.0304 211.026 20.0775 211.033 13.8684C211.026 7.65924 208.557 1.70645 204.166 -2.68427C199.776 -7.07501 193.823 -9.5452 187.614 -9.55301ZM187.614 27.7781C183.926 27.7739 180.391 26.3071 177.783 23.6994C175.176 21.0917 173.709 17.5562 173.705 13.8684C173.709 10.1806 175.176 6.64505 177.783 4.03738C180.391 1.42972 183.926 -0.0371094 187.614 -0.0413208C191.302 -0.0371094 194.837 1.42978 197.444 4.03751C200.052 6.64523 201.518 10.1808 201.522 13.8684C201.518 17.5558 200.051 21.091 197.444 23.6986C194.837 26.3062 191.302 27.7733 187.614 27.7781Z" fill="white"></path>
<path d="M216.798 36.3556H226.172V-8.6188H216.798V36.3556Z" fill="white"></path>
<path fill-rule="evenodd" clip-rule="evenodd" d="M291.411 -2.68509C295.802 -7.0759 301.755 -9.54581 307.964 -9.55301C314.173 -9.5452 320.126 -7.07501 324.516 -2.68427C328.907 1.70645 331.376 7.65924 331.383 13.8684C331.376 20.0775 328.907 26.0304 324.516 30.4211C320.126 34.8118 314.173 37.282 307.964 37.2898C301.755 37.2826 295.802 34.8127 291.411 30.4219C287.02 26.031 284.55 20.0779 284.543 13.8684C284.55 7.65884 287.02 1.70572 291.411 -2.68509ZM298.133 23.6994C300.741 26.3071 304.276 27.7739 307.964 27.7781C311.652 27.7733 315.187 26.3062 317.794 23.6986C320.401 21.091 321.867 17.5558 321.872 13.8684C321.868 10.1808 320.402 6.64523 317.794 4.03751C315.187 1.42978 311.652 -0.0371094 307.964 -0.0413208C304.276 -0.0371094 300.741 1.42972 298.133 4.03738C295.526 6.64505 294.059 10.1806 294.055 13.8684C294.059 17.5562 295.526 21.0917 298.133 23.6994Z" fill="white"></path>
<path d="M346.523 36.3556H337.15V-8.6188H346.523V36.3556Z" fill="white"></path>
<path d="M351.567 36.3556H360.94V-8.6188H351.567V36.3556Z" fill="white"></path>
<path d="M420.032 36.3556H429.406V-8.6188H420.032V36.3556Z" fill="white"></path>
<path fill-rule="evenodd" clip-rule="evenodd" d="M458.592 -9.55301C452.383 -9.54581 446.43 -7.0759 442.039 -2.68509C437.648 1.70572 435.178 7.65884 435.171 13.8684C435.178 20.0779 437.648 26.031 442.039 30.4219C446.43 34.8127 452.383 37.2826 458.592 37.2898C464.802 37.282 470.754 34.8118 475.144 30.4211C479.535 26.0304 482.004 20.0775 482.012 13.8684C482.004 7.65924 479.535 1.70645 475.144 -2.68427C470.754 -7.07501 464.802 -9.5452 458.592 -9.55301ZM458.592 27.7781C454.905 27.7739 451.369 26.3071 448.761 23.6994C446.154 21.0917 444.687 17.5562 444.683 13.8684C444.687 10.1806 446.154 6.64505 448.761 4.03738C451.369 1.42972 454.905 -0.0371094 458.592 -0.0413208C462.28 -0.0371094 465.815 1.42978 468.423 4.03751C471.03 6.64523 472.496 10.1808 472.5 13.8684C472.496 17.5558 471.029 21.091 468.422 23.6986C465.815 26.3062 462.28 27.7733 458.592 27.7781Z" fill="white"></path>
<path d="M487.777 36.3556H497.151V-8.6188H487.777V36.3556Z" fill="white"></path>
<path d="M511.569 36.3556H502.195V-8.6188H511.569V36.3556Z" fill="white"></path>
<path d="M516.613 36.3556H525.987V-8.6188H516.613V36.3556Z" fill="white"></path>
<path d="M584.358 36.3556H593.731V-8.6188H584.358V36.3556Z" fill="white"></path>
<path fill-rule="evenodd" clip-rule="evenodd" d="M622.918 -9.55301C616.708 -9.54581 610.755 -7.0759 606.365 -2.68509C601.974 1.70572 599.504 7.65884 599.497 13.8684C599.504 20.0779 601.974 26.031 606.365 30.4219C610.755 34.8127 616.708 37.2826 622.918 37.2898C629.127 37.282 635.08 34.8118 639.47 30.4211C643.86 26.0304 646.33 20.0775 646.337 13.8684C646.33 7.65924 643.86 1.70645 639.47 -2.68427C635.08 -7.07501 629.127 -9.5452 622.918 -9.55301ZM622.918 27.7781C619.23 27.7739 615.695 26.3071 613.087 23.6994C610.479 21.0917 609.013 17.5562 609.008 13.8684C609.013 10.1806 610.479 6.64505 613.087 4.03738C615.695 1.42972 619.23 -0.0371094 622.918 -0.0413208C626.606 -0.0371094 630.141 1.42978 632.748 4.03751C635.356 6.64523 636.822 10.1808 636.825 13.8684C636.821 17.5558 635.355 21.091 632.748 23.6986C630.14 26.3062 626.605 27.7733 622.918 27.7781Z" fill="white"></path>
<path fill-rule="evenodd" clip-rule="evenodd" d="M658.97 -2.68509C663.361 -7.0759 669.314 -9.54581 675.524 -9.55301C681.733 -9.5452 687.686 -7.07501 692.076 -2.68427C696.466 1.70645 698.936 7.65924 698.943 13.8684C698.936 20.0775 696.466 26.0304 692.076 30.4211C687.686 34.8118 681.733 37.282 675.524 37.2898C669.314 37.2826 663.361 34.8127 658.97 30.4219C654.58 26.031 652.11 20.0779 652.103 13.8684C652.11 7.65884 654.58 1.70572 658.97 -2.68509ZM665.693 23.6994C668.301 26.3071 671.836 27.7739 675.524 27.7781C679.211 27.7733 682.746 26.3062 685.354 23.6986C687.961 21.091 689.427 17.5558 689.431 13.8684C689.428 10.1808 687.961 6.64523 685.354 4.03751C682.747 1.42978 679.212 -0.0371094 675.524 -0.0413208C671.836 -0.0371094 668.301 1.42972 665.693 4.03738C663.085 6.64505 661.618 10.1806 661.614 13.8684C661.618 17.5562 663.085 21.0917 665.693 23.6994Z" fill="white"></path>
<path d="M714.082 36.3556H704.709V-8.6188H714.082V36.3556Z" fill="white"></path>
<path d="M719.127 36.3556H728.5V-8.6188H719.127V36.3556Z" fill="white"></path>
<path fill-rule="evenodd" clip-rule="evenodd" d="M705.079 -61.8008C711.288 -61.7935 717.241 -59.3236 721.632 -54.9328C726.023 -50.542 728.493 -44.5889 728.5 -38.3794C728.493 -32.1698 726.023 -26.2167 721.632 -21.8258C717.241 -17.435 711.288 -14.9651 705.079 -14.9579C698.87 -14.9657 692.917 -17.4359 688.527 -21.8267C684.136 -26.2174 681.667 -32.1702 681.66 -38.3794C681.667 -44.5885 684.136 -50.5413 688.527 -54.932C692.917 -59.3228 698.87 -61.7929 705.079 -61.8008ZM705.079 -24.4696C708.766 -24.4738 712.302 -25.9407 714.91 -28.5483C717.517 -31.156 718.984 -34.6916 718.988 -38.3794C718.984 -42.0671 717.517 -45.6027 714.91 -48.2103C712.302 -50.818 708.766 -52.2849 705.079 -52.2891C701.391 -52.2849 697.856 -50.8179 695.248 -48.2102C692.641 -45.6025 691.175 -42.067 691.171 -38.3794C691.175 -34.6919 692.642 -31.1567 695.249 -28.5491C697.856 -25.9415 701.391 -24.4744 705.079 -24.4696Z" fill="white"></path>
<path d="M675.894 -15.8921H666.521V-60.8665H675.894V-15.8921Z" fill="white"></path>
<path fill-rule="evenodd" clip-rule="evenodd" d="M637.334 -61.8008C643.544 -61.7935 649.497 -59.3236 653.888 -54.9328C658.278 -50.542 660.748 -44.5889 660.755 -38.3794C660.748 -32.1698 658.278 -26.2167 653.888 -21.8258C649.497 -17.435 643.544 -14.9651 637.334 -14.9579C631.125 -14.9657 625.172 -17.4359 620.782 -21.8267C616.392 -26.2174 613.922 -32.1702 613.915 -38.3794C613.922 -44.5885 616.392 -50.5413 620.782 -54.932C625.172 -59.3228 631.125 -61.7929 637.334 -61.8008ZM637.334 -24.4696C641.022 -24.4738 644.557 -25.9407 647.165 -28.5483C649.773 -31.156 651.24 -34.6916 651.244 -38.3794C651.24 -42.0671 649.773 -45.6027 647.165 -48.2103C644.557 -50.818 641.022 -52.2849 637.334 -52.2891C633.646 -52.2849 630.111 -50.8179 627.504 -48.2102C624.896 -45.6025 623.43 -42.067 623.427 -38.3794C623.431 -34.6919 624.897 -31.1567 627.504 -28.5491C630.112 -25.9415 633.647 -24.4744 637.334 -24.4696Z" fill="white"></path>
<path d="M608.149 -15.8921H598.776V-60.8665H608.149V-15.8921Z" fill="white"></path>
<path d="M584.358 -15.8921H593.731V-60.8665H584.358V-15.8921Z" fill="white"></path>
<path d="M579.313 -15.8921H569.94V-60.8665H579.313V-15.8921Z" fill="white"></path>
<path fill-rule="evenodd" clip-rule="evenodd" d="M540.753 -61.8008C546.963 -61.7935 552.916 -59.3236 557.307 -54.9328C561.697 -50.542 564.167 -44.5889 564.174 -38.3794C564.167 -32.1698 561.697 -26.2167 557.307 -21.8258C552.916 -17.435 546.963 -14.9651 540.753 -14.9579C534.544 -14.9657 528.591 -17.4359 524.201 -21.8267C519.811 -26.2174 517.341 -32.1702 517.334 -38.3794C517.341 -44.5885 519.811 -50.5413 524.201 -54.932C528.591 -59.3228 534.544 -61.7929 540.753 -61.8008ZM540.753 -24.4696C544.441 -24.4738 547.977 -25.9407 550.584 -28.5483C553.192 -31.156 554.659 -34.6916 554.663 -38.3794C554.659 -42.0671 553.192 -45.6027 550.584 -48.2103C547.977 -50.818 544.441 -52.2849 540.753 -52.2891C537.066 -52.2849 533.53 -50.8179 530.923 -48.2102C528.316 -45.6025 526.849 -42.067 526.846 -38.3794C526.85 -34.6919 528.316 -31.1567 530.924 -28.5491C533.531 -25.9415 537.066 -24.4744 540.753 -24.4696Z" fill="white"></path>
<path d="M511.569 -15.8921H502.195V-60.8665H511.569V-15.8921Z" fill="white"></path>
<path fill-rule="evenodd" clip-rule="evenodd" d="M473.008 -61.8008C479.218 -61.7935 485.171 -59.3236 489.562 -54.9328C493.953 -50.542 496.423 -44.5889 496.43 -38.3794C496.423 -32.1698 493.953 -26.2167 489.562 -21.8258C485.171 -17.435 479.218 -14.9651 473.008 -14.9579C466.799 -14.9657 460.847 -17.4359 456.456 -21.8267C452.066 -26.2174 449.596 -32.1702 449.589 -38.3794C449.596 -44.5885 452.066 -50.5413 456.456 -54.932C460.847 -59.3228 466.799 -61.7929 473.008 -61.8008ZM473.008 -24.4696C476.696 -24.4738 480.232 -25.9407 482.839 -28.5483C485.447 -31.156 486.914 -34.6916 486.918 -38.3794C486.914 -42.0671 485.447 -45.6027 482.839 -48.2103C480.232 -50.818 476.696 -52.2849 473.008 -52.2891C469.321 -52.2849 465.785 -50.8179 463.178 -48.2102C460.571 -45.6025 459.104 -42.067 459.101 -38.3794C459.105 -34.6919 460.572 -31.1567 463.179 -28.5491C465.786 -25.9415 469.321 -24.4744 473.008 -24.4696Z" fill="white"></path>
<path fill-rule="evenodd" clip-rule="evenodd" d="M436.956 -54.9328C432.565 -59.3236 426.612 -61.7935 420.402 -61.8008C414.193 -61.7929 408.241 -59.3228 403.85 -54.932C399.46 -50.5413 396.99 -44.5885 396.983 -38.3794C396.99 -32.1702 399.46 -26.2174 403.85 -21.8267C408.241 -17.4359 414.193 -14.9657 420.402 -14.9579C426.612 -14.9651 432.565 -17.435 436.956 -21.8258C441.347 -26.2167 443.817 -32.1698 443.824 -38.3794C443.817 -44.5889 441.347 -50.542 436.956 -54.9328ZM430.233 -28.5483C427.626 -25.9407 424.09 -24.4738 420.402 -24.4696C416.715 -24.4744 413.18 -25.9415 410.573 -28.5491C407.966 -31.1567 406.499 -34.6919 406.495 -38.3794C406.499 -42.067 407.965 -45.6025 410.572 -48.2102C413.179 -50.8179 416.715 -52.2849 420.402 -52.2891C424.09 -52.2849 427.626 -50.818 430.233 -48.2103C432.841 -45.6027 434.308 -42.0671 434.312 -38.3794C434.308 -34.6916 432.841 -31.156 430.233 -28.5483Z" fill="white"></path>
<path d="M381.845 -15.8921H391.219V-60.8665H381.845V-15.8921Z" fill="white"></path>
<path d="M376.8 -15.8921H367.426V-60.8665H376.8V-15.8921Z" fill="white"></path>
<path fill-rule="evenodd" clip-rule="evenodd" d="M337.52 -61.8008C343.729 -61.7935 349.682 -59.3236 354.073 -54.9328C358.464 -50.542 360.934 -44.5889 360.941 -38.3794C360.934 -32.1698 358.464 -26.2167 354.073 -21.8258C349.682 -17.435 343.729 -14.9651 337.52 -14.9579C331.311 -14.9657 325.358 -17.4359 320.968 -21.8267C316.577 -26.2174 314.108 -32.1702 314.101 -38.3794C314.108 -44.5885 316.577 -50.5413 320.968 -54.932C325.358 -59.3228 331.311 -61.7929 337.52 -61.8008ZM337.52 -24.4696C341.207 -24.4738 344.743 -25.9407 347.351 -28.5483C349.958 -31.156 351.425 -34.6916 351.429 -38.3794C351.425 -42.0671 349.958 -45.6027 347.351 -48.2103C344.743 -50.818 341.207 -52.2849 337.52 -52.2891C333.832 -52.2849 330.297 -50.8179 327.689 -48.2102C325.082 -45.6025 323.616 -42.067 323.612 -38.3794C323.616 -34.6919 325.083 -31.1567 327.69 -28.5491C330.297 -25.9415 333.832 -24.4744 337.52 -24.4696Z" fill="white"></path>
<path d="M308.334 -15.8921H298.961V-60.8665H308.334V-15.8921Z" fill="white"></path>
<path fill-rule="evenodd" clip-rule="evenodd" d="M269.775 -61.8008C275.984 -61.7935 281.938 -59.3236 286.328 -54.9328C290.719 -50.542 293.189 -44.5889 293.196 -38.3794C293.189 -32.1698 290.719 -26.2167 286.328 -21.8258C281.938 -17.435 275.984 -14.9651 269.775 -14.9579C263.566 -14.9657 257.613 -17.4359 253.223 -21.8267C248.833 -26.2174 246.363 -32.1702 246.356 -38.3794C246.363 -44.5885 248.833 -50.5413 253.223 -54.932C257.613 -59.3228 263.566 -61.7929 269.775 -61.8008ZM269.775 -24.4696C273.463 -24.4738 276.998 -25.9407 279.606 -28.5483C282.214 -31.156 283.68 -34.6916 283.685 -38.3794C283.68 -42.0671 282.214 -45.6027 279.606 -48.2103C276.998 -50.818 273.463 -52.2849 269.775 -52.2891C266.087 -52.2849 262.552 -50.8179 259.945 -48.2102C257.337 -45.6025 255.871 -42.067 255.867 -38.3794C255.872 -34.6919 257.338 -31.1567 259.945 -28.5491C262.553 -25.9415 266.088 -24.4744 269.775 -24.4696Z" fill="white"></path>
<path d="M240.59 -15.8921H231.216V-60.8665H240.59V-15.8921Z" fill="white"></path>
<path d="M216.799 -15.8921H226.172V-60.8665H216.799V-15.8921Z" fill="white"></path>
<path d="M211.753 -15.8921H202.38V-60.8665H211.753V-15.8921Z" fill="white"></path>
<path fill-rule="evenodd" clip-rule="evenodd" d="M173.194 -61.8008C179.404 -61.7935 185.357 -59.3236 189.748 -54.9328C194.138 -50.542 196.608 -44.5889 196.615 -38.3794C196.608 -32.1698 194.138 -26.2167 189.748 -21.8258C185.357 -17.435 179.404 -14.9651 173.194 -14.9579C166.985 -14.9657 161.032 -17.4359 156.642 -21.8267C152.252 -26.2174 149.782 -32.1702 149.775 -38.3794C149.782 -44.5885 152.252 -50.5413 156.642 -54.932C161.032 -59.3228 166.985 -61.7929 173.194 -61.8008ZM173.194 -24.4696C176.882 -24.4738 180.417 -25.9407 183.025 -28.5483C185.633 -31.156 187.1 -34.6916 187.104 -38.3794C187.1 -42.0671 185.633 -45.6027 183.025 -48.2103C180.417 -50.818 176.882 -52.2849 173.194 -52.2891C169.506 -52.2849 165.971 -50.8179 163.364 -48.2102C160.757 -45.6025 159.29 -42.067 159.287 -38.3794C159.291 -34.6919 160.757 -31.1567 163.364 -28.5491C165.972 -25.9415 169.507 -24.4744 173.194 -24.4696Z" fill="white"></path>
<path d="M144.009 -15.8921H134.636V-60.8665H144.009V-15.8921Z" fill="white"></path>
<path fill-rule="evenodd" clip-rule="evenodd" d="M105.449 -61.8008C111.659 -61.7935 117.612 -59.3236 122.003 -54.9328C126.394 -50.542 128.864 -44.5889 128.871 -38.3794C128.864 -32.1698 126.394 -26.2167 122.003 -21.8258C117.612 -17.435 111.659 -14.9651 105.449 -14.9579C99.2402 -14.9657 93.2876 -17.4359 88.8973 -21.8267C84.507 -26.2174 82.0374 -32.1702 82.0302 -38.3794C82.0374 -44.5885 84.507 -50.5413 88.8973 -54.932C93.2876 -59.3228 99.2402 -61.7929 105.449 -61.8008ZM105.449 -24.4696C109.137 -24.4738 112.673 -25.9407 115.28 -28.5483C117.888 -31.156 119.355 -34.6916 119.359 -38.3794C119.355 -42.0671 117.888 -45.6027 115.28 -48.2103C112.673 -50.818 109.137 -52.2849 105.449 -52.2891C101.762 -52.2849 98.2264 -50.8179 95.6191 -48.2102C93.0118 -45.6025 91.5455 -42.067 91.5419 -38.3794C91.5461 -34.6919 93.0126 -31.1567 95.6198 -28.5491C98.227 -25.9415 101.762 -24.4744 105.449 -24.4696Z" fill="white"></path>
<path fill-rule="evenodd" clip-rule="evenodd" d="M69.3969 -54.9328C65.0061 -59.3236 59.0529 -61.7935 52.8434 -61.8008C46.6342 -61.7929 40.6817 -59.3228 36.2913 -54.932C31.901 -50.5413 29.4314 -44.5885 29.4242 -38.3794C29.4314 -32.1702 31.901 -26.2174 36.2913 -21.8267C40.6817 -17.4359 46.6342 -14.9657 52.8434 -14.9579C59.0529 -14.9651 65.0061 -17.435 69.3969 -21.8258C73.7877 -26.2167 76.2576 -32.1698 76.2648 -38.3794C76.2576 -44.5889 73.7877 -50.542 69.3969 -54.9328ZM62.6744 -28.5483C60.0667 -25.9407 56.5312 -24.4738 52.8434 -24.4696C49.156 -24.4744 45.621 -25.9415 43.0138 -28.5491C40.4066 -31.1567 38.9401 -34.6919 38.9359 -38.3794C38.9395 -42.067 40.4058 -45.6025 43.0132 -48.2102C45.6205 -50.8179 49.1558 -52.2849 52.8434 -52.2891C56.5312 -52.2849 60.0667 -50.818 62.6744 -48.2103C65.2821 -45.6027 66.7489 -42.0671 66.7531 -38.3794C66.7489 -34.6916 65.2821 -31.156 62.6744 -28.5483Z" fill="white"></path>
<path d="M14.2853 -15.8921H23.6588V-60.8665H14.2853V-15.8921Z" fill="white"></path>
<path d="M9.24072 -15.8921H-0.132812V-60.8665H9.24072V-15.8921Z" fill="white"></path>
<path fill-rule="evenodd" clip-rule="evenodd" d="M825.533 199.437C819.324 199.445 813.371 201.915 808.98 206.305C804.589 210.696 802.119 216.649 802.112 222.859C802.119 229.068 804.589 235.022 808.98 239.412C813.371 243.803 819.324 246.273 825.533 246.28C831.742 246.272 837.695 243.802 842.085 239.412C846.476 235.021 848.945 229.068 848.952 222.859C848.945 216.65 846.476 210.697 842.085 206.306C837.695 201.915 831.742 199.445 825.533 199.437ZM825.533 236.769C821.846 236.764 818.31 235.298 815.702 232.69C813.095 230.082 811.628 226.547 811.624 222.859C811.628 219.171 813.095 215.636 815.702 213.028C818.31 210.42 821.846 208.953 825.533 208.949C829.221 208.953 832.756 210.42 835.364 213.028C837.971 215.636 839.437 219.171 839.441 222.859C839.437 226.546 837.97 230.081 835.363 232.689C832.756 235.297 829.221 236.764 825.533 236.769Z" fill="white"></path>
<path d="M786.973 245.346H796.347V200.372H786.973V245.346Z" fill="white"></path>
<path d="M854.717 245.346H864.091V200.372H854.717V245.346Z" fill="white"></path>
<path d="M878.51 245.346H869.136V200.372H878.51V245.346Z" fill="white"></path>
<path d="M883.553 245.346H892.927V200.372H883.553V245.346Z" fill="white"></path>
<path d="M951.298 245.346H960.672V200.372H951.298V245.346Z" fill="white"></path>
<path fill-rule="evenodd" clip-rule="evenodd" d="M989.859 199.437C983.649 199.445 977.696 201.915 973.305 206.305C968.915 210.696 966.445 216.649 966.438 222.859C966.445 229.068 968.915 235.022 973.305 239.412C977.696 243.803 983.649 246.273 989.859 246.28C996.068 246.272 1002.02 243.802 1006.41 239.412C1010.8 235.021 1013.27 229.068 1013.28 222.859C1013.27 216.65 1010.8 210.697 1006.41 206.306C1002.02 201.915 996.068 199.445 989.859 199.437ZM989.859 236.769C986.171 236.764 982.636 235.298 980.028 232.69C977.42 230.082 975.953 226.547 975.949 222.859C975.953 219.171 977.42 215.636 980.028 213.028C982.636 210.42 986.171 208.953 989.859 208.949C993.547 208.953 997.082 210.42 999.689 213.028C1002.3 215.636 1003.76 219.171 1003.77 222.859C1003.76 226.546 1002.3 230.081 999.689 232.689C997.081 235.297 993.546 236.764 989.859 236.769Z" fill="white"></path>
<path d="M1081.02 245.346H1071.65V200.372H1081.02V245.346Z" fill="white"></path>
<path d="M1154.53 245.346H1163.91V200.372H1154.53V245.346Z" fill="white"></path>
<path d="M1222.28 245.346H1231.65V200.372H1222.28V245.346Z" fill="white"></path>
<path d="M1251.11 245.346H1260.49V200.372H1251.11V245.346Z" fill="white"></path>
<path fill-rule="evenodd" clip-rule="evenodd" d="M1289.67 199.437C1283.46 199.445 1277.51 201.915 1273.12 206.305C1268.73 210.696 1266.26 216.649 1266.25 222.859C1266.26 229.068 1268.73 235.022 1273.12 239.412C1277.51 243.803 1283.46 246.273 1289.67 246.28C1295.88 246.272 1301.84 243.802 1306.23 239.412C1310.62 235.021 1313.09 229.068 1313.09 222.859C1313.09 216.65 1310.62 210.697 1306.23 206.306C1301.84 201.915 1295.88 199.445 1289.67 199.437ZM1289.67 236.769C1285.99 236.764 1282.45 235.298 1279.84 232.69C1277.24 230.082 1275.77 226.547 1275.76 222.859C1275.77 219.171 1277.24 215.636 1279.84 213.028C1282.45 210.42 1285.99 208.953 1289.67 208.949C1293.36 208.953 1296.9 210.42 1299.5 213.028C1302.11 215.636 1303.58 219.171 1303.58 222.859C1303.58 226.546 1302.11 230.081 1299.5 232.689C1296.9 235.297 1293.36 236.764 1289.67 236.769Z" fill="white"></path>
<path d="M1318.86 245.346H1328.23V200.372H1318.86V245.346Z" fill="white"></path>
<path fill-rule="evenodd" clip-rule="evenodd" d="M1393.47 206.305C1397.86 201.915 1403.81 199.445 1410.02 199.437C1416.23 199.445 1422.19 201.915 1426.58 206.306C1430.97 210.697 1433.44 216.65 1433.44 222.859C1433.44 229.068 1430.97 235.021 1426.58 239.412C1422.19 243.802 1416.23 246.272 1410.02 246.28C1403.81 246.273 1397.86 243.803 1393.47 239.412C1389.08 235.022 1386.61 229.068 1386.6 222.859C1386.61 216.649 1389.08 210.696 1393.47 206.305ZM1400.19 232.69C1402.8 235.298 1406.34 236.764 1410.02 236.769C1413.71 236.764 1417.25 235.297 1419.85 232.689C1422.46 230.081 1423.93 226.546 1423.93 222.859C1423.93 219.171 1422.46 215.636 1419.85 213.028C1417.25 210.42 1413.71 208.953 1410.02 208.949C1406.34 208.953 1402.8 210.42 1400.19 213.028C1397.59 215.636 1396.12 219.171 1396.11 222.859C1396.12 226.547 1397.59 230.082 1400.19 232.69Z" fill="white"></path>
<path d="M1448.58 245.346H1439.21V200.372H1448.58V245.346Z" fill="white"></path>
<path d="M1453.63 245.346H1463V200.372H1453.63V245.346Z" fill="white"></path>
<path d="M1410.39 193.098H1401.02V148.124H1410.39V193.098Z" fill="white"></path>
<path fill-rule="evenodd" clip-rule="evenodd" d="M1371.83 147.19C1378.04 147.197 1384 149.667 1388.39 154.058C1392.78 158.448 1395.25 164.402 1395.26 170.611C1395.25 176.821 1392.78 182.774 1388.39 187.165C1384 191.555 1378.04 194.025 1371.83 194.033C1365.62 194.025 1359.67 191.555 1355.28 187.164C1350.89 182.773 1348.42 176.82 1348.41 170.611C1348.42 164.402 1350.89 158.449 1355.28 154.058C1359.67 149.668 1365.62 147.198 1371.83 147.19ZM1371.83 184.521C1375.52 184.517 1379.06 183.05 1381.67 180.442C1384.27 177.834 1385.74 174.299 1385.74 170.611C1385.74 166.923 1384.27 163.388 1381.67 160.78C1379.06 158.172 1375.52 156.706 1371.83 156.701C1368.15 156.706 1364.61 158.173 1362 160.78C1359.4 163.388 1357.93 166.924 1357.93 170.611C1357.93 174.299 1359.4 177.834 1362 180.441C1364.61 183.049 1368.15 184.516 1371.83 184.521Z" fill="white"></path>
<path d="M1342.65 193.098H1333.28V148.124H1342.65V193.098Z" fill="white"></path>
<path d="M1318.86 193.098H1328.23V148.124H1318.86V193.098Z" fill="white"></path>
<path d="M1313.81 193.098H1304.44V148.124H1313.81V193.098Z" fill="white"></path>
<path fill-rule="evenodd" clip-rule="evenodd" d="M1171.46 154.058C1167.07 149.667 1161.11 147.197 1154.9 147.19C1148.69 147.198 1142.74 149.668 1138.35 154.058C1133.96 158.449 1131.49 164.402 1131.48 170.611C1131.49 176.82 1133.96 182.773 1138.35 187.164C1142.74 191.555 1148.69 194.025 1154.9 194.033C1161.11 194.025 1167.07 191.555 1171.46 187.165C1175.85 182.774 1178.32 176.821 1178.32 170.611C1178.32 164.402 1175.85 158.448 1171.46 154.058ZM1164.73 180.442C1162.13 183.05 1158.59 184.517 1154.9 184.521C1151.21 184.516 1147.68 183.049 1145.07 180.441C1142.47 177.834 1141 174.299 1140.99 170.611C1141 166.924 1142.46 163.388 1145.07 160.78C1147.68 158.173 1151.21 156.706 1154.9 156.701C1158.59 156.706 1162.13 158.172 1164.73 160.78C1167.34 163.388 1168.81 166.923 1168.81 170.611C1168.81 174.299 1167.34 177.834 1164.73 180.442Z" fill="white"></path>
<path d="M1111.3 193.098H1101.93V148.124H1111.3V193.098Z" fill="white"></path>
<path fill-rule="evenodd" clip-rule="evenodd" d="M1072.02 147.19C1078.23 147.197 1084.18 149.667 1088.57 154.058C1092.96 158.448 1095.43 164.402 1095.44 170.611C1095.43 176.821 1092.96 182.774 1088.57 187.165C1084.18 191.555 1078.23 194.025 1072.02 194.033C1065.81 194.025 1059.86 191.555 1055.47 187.164C1051.08 182.773 1048.61 176.82 1048.6 170.611C1048.61 164.402 1051.08 158.449 1055.47 154.058C1059.86 149.668 1065.81 147.198 1072.02 147.19ZM1072.02 184.521C1075.71 184.517 1079.24 183.05 1081.85 180.442C1084.46 177.834 1085.93 174.299 1085.93 170.611C1085.93 166.923 1084.46 163.388 1081.85 160.78C1079.24 158.172 1075.71 156.706 1072.02 156.701C1068.33 156.706 1064.8 158.173 1062.19 160.78C1059.58 163.388 1058.12 166.924 1058.11 170.611C1058.12 174.299 1059.58 177.834 1062.19 180.441C1064.8 183.049 1068.33 184.516 1072.02 184.521Z" fill="white"></path>
<path d="M975.09 193.098H965.716V148.124H975.09V193.098Z" fill="white"></path>
<path d="M951.299 193.098H960.672V148.124H951.299V193.098Z" fill="white"></path>
<path d="M946.253 193.098H936.88V148.124H946.253V193.098Z" fill="white"></path>
<path fill-rule="evenodd" clip-rule="evenodd" d="M907.694 147.19C913.904 147.197 919.857 149.667 924.248 154.058C928.638 158.448 931.108 164.402 931.115 170.611C931.108 176.821 928.638 182.774 924.248 187.165C919.857 191.555 913.904 194.025 907.694 194.033C901.485 194.025 895.532 191.555 891.142 187.164C886.752 182.773 884.282 176.82 884.275 170.611C884.282 164.402 886.752 158.449 891.142 154.058C895.532 149.668 901.485 147.198 907.694 147.19ZM907.694 184.521C911.382 184.517 914.917 183.05 917.525 180.442C920.133 177.834 921.6 174.299 921.604 170.611C921.6 166.923 920.133 163.388 917.525 160.78C914.917 158.172 911.382 156.706 907.694 156.701C904.006 156.706 900.471 158.173 897.864 160.78C895.257 163.388 893.79 166.924 893.787 170.611C893.791 174.299 895.257 177.834 897.864 180.441C900.472 183.049 904.007 184.516 907.694 184.521Z" fill="white"></path>
<path d="M878.509 193.098H869.136V148.124H878.509V193.098Z" fill="white"></path>
<path fill-rule="evenodd" clip-rule="evenodd" d="M839.949 147.19C846.159 147.197 852.112 149.667 856.503 154.058C860.894 158.448 863.364 164.402 863.371 170.611C863.364 176.821 860.894 182.774 856.503 187.165C852.112 191.555 846.159 194.025 839.949 194.033C833.74 194.025 827.788 191.555 823.397 187.164C819.007 182.773 816.537 176.82 816.53 170.611C816.537 164.402 819.007 158.449 823.397 154.058C827.788 149.668 833.74 147.198 839.949 147.19ZM839.949 184.521C843.637 184.517 847.173 183.05 849.78 180.442C852.388 177.834 853.855 174.299 853.859 170.611C853.855 166.923 852.388 163.388 849.78 160.78C847.173 158.172 843.637 156.706 839.949 156.701C836.262 156.706 832.726 158.173 830.119 160.78C827.512 163.388 826.045 166.924 826.042 170.611C826.046 174.299 827.513 177.834 830.12 180.441C832.727 183.049 836.262 184.516 839.949 184.521Z" fill="white"></path>
<path fill-rule="evenodd" clip-rule="evenodd" d="M803.897 154.058C799.506 149.667 793.553 147.197 787.343 147.19C781.134 147.198 775.182 149.668 770.791 154.058C766.401 158.449 763.931 164.402 763.924 170.611C763.931 176.82 766.401 182.773 770.791 187.164C775.182 191.555 781.134 194.025 787.343 194.033C793.553 194.025 799.506 191.555 803.897 187.165C808.288 182.774 810.758 176.821 810.765 170.611C810.758 164.402 808.288 158.448 803.897 154.058ZM797.174 180.442C794.567 183.05 791.031 184.517 787.343 184.521C783.656 184.516 780.121 183.049 777.514 180.441C774.907 177.834 773.44 174.299 773.436 170.611C773.44 166.924 774.906 163.388 777.513 160.78C780.12 158.173 783.656 156.706 787.343 156.701C791.031 156.706 794.567 158.172 797.174 160.78C799.782 163.388 801.249 166.923 801.253 170.611C801.249 174.299 799.782 177.834 797.174 180.442Z" fill="white"></path>
<path d="M748.785 193.098H758.159V148.124H748.785V193.098Z" fill="white"></path>
<path d="M839 140.851H848.374V95.8762H839V140.851Z" fill="white"></path>
<path d="M854.717 140.851H864.091V95.8762H854.717V140.851Z" fill="white"></path>
<path d="M883.553 140.851H892.927V95.8762H883.553V140.851Z" fill="white"></path>
<path fill-rule="evenodd" clip-rule="evenodd" d="M922.114 94.942C915.905 94.9492 909.952 97.4191 905.561 101.81C901.17 106.201 898.7 112.154 898.693 118.363C898.7 124.573 901.17 130.526 905.561 134.917C909.952 139.308 915.905 141.778 922.114 141.785C928.323 141.777 934.276 139.307 938.666 134.916C943.057 130.525 945.526 124.573 945.533 118.363C945.526 112.154 943.057 106.201 938.666 101.811C934.276 97.42 928.323 94.9498 922.114 94.942ZM922.114 132.273C918.426 132.269 914.891 130.802 912.283 128.194C909.676 125.587 908.209 122.051 908.205 118.363C908.209 114.676 909.676 111.14 912.283 108.532C914.891 105.925 918.426 104.458 922.114 104.454C925.802 104.458 929.337 105.925 931.944 108.533C934.552 111.14 936.018 114.676 936.022 118.363C936.018 122.051 934.551 125.586 931.944 128.194C929.337 130.801 925.802 132.268 922.114 132.273Z" fill="white"></path>
<path d="M951.298 140.851H960.672V95.8762H951.298V140.851Z" fill="white"></path>
<path fill-rule="evenodd" clip-rule="evenodd" d="M989.859 94.942C983.649 94.9492 977.696 97.4191 973.305 101.81C968.915 106.201 966.445 112.154 966.438 118.363C966.445 124.573 968.915 130.526 973.305 134.917C977.696 139.308 983.649 141.778 989.859 141.785C996.068 141.777 1002.02 139.307 1006.41 134.916C1010.8 130.525 1013.27 124.573 1013.28 118.363C1013.27 112.154 1010.8 106.201 1006.41 101.811C1002.02 97.42 996.068 94.9498 989.859 94.942ZM989.859 132.273C986.171 132.269 982.636 130.802 980.028 128.194C977.42 125.587 975.953 122.051 975.949 118.363C975.953 114.676 977.42 111.14 980.028 108.532C982.636 105.925 986.171 104.458 989.859 104.454C993.547 104.458 997.082 105.925 999.689 108.533C1002.3 111.14 1003.76 114.676 1003.77 118.363C1003.76 122.051 1002.3 125.586 999.689 128.194C997.081 130.801 993.546 132.268 989.859 132.273Z" fill="white"></path>
<path d="M1081.02 140.851H1071.65V95.8762H1081.02V140.851Z" fill="white"></path>
<path d="M1086.07 140.851H1095.44V95.8762H1086.07V140.851Z" fill="white"></path>
<path d="M1154.53 140.851H1163.91V95.8762H1154.53V140.851Z" fill="white"></path>
<path d="M1222.28 140.851H1231.65V95.8762H1222.28V140.851Z" fill="white"></path>
<path d="M1246.07 140.851H1236.7V95.8762H1246.07V140.851Z" fill="white"></path>
<path fill-rule="evenodd" clip-rule="evenodd" d="M1289.67 94.942C1283.46 94.9492 1277.51 97.4191 1273.12 101.81C1268.73 106.201 1266.26 112.154 1266.25 118.363C1266.26 124.573 1268.73 130.526 1273.12 134.917C1277.51 139.308 1283.46 141.778 1289.67 141.785C1295.88 141.777 1301.84 139.307 1306.23 134.916C1310.62 130.525 1313.09 124.573 1313.09 118.363C1313.09 112.154 1310.62 106.201 1306.23 101.811C1301.84 97.42 1295.88 94.9498 1289.67 94.942ZM1289.67 132.273C1285.99 132.269 1282.45 130.802 1279.84 128.194C1277.24 125.587 1275.77 122.051 1275.76 118.363C1275.77 114.676 1277.24 111.14 1279.84 108.532C1282.45 105.925 1285.99 104.458 1289.67 104.454C1293.36 104.458 1296.9 105.925 1299.5 108.533C1302.11 111.14 1303.58 114.676 1303.58 118.363C1303.58 122.051 1302.11 125.586 1299.5 128.194C1296.9 130.801 1293.36 132.268 1289.67 132.273Z" fill="white"></path>
<path d="M1318.86 140.851H1328.23V95.8762H1318.86V140.851Z" fill="white"></path>
<path fill-rule="evenodd" clip-rule="evenodd" d="M1393.47 101.81C1397.86 97.4191 1403.81 94.9492 1410.02 94.942C1416.23 94.9498 1422.19 97.42 1426.58 101.811C1430.97 106.201 1433.44 112.154 1433.44 118.363C1433.44 124.573 1430.97 130.525 1426.58 134.916C1422.19 139.307 1416.23 141.777 1410.02 141.785C1403.81 141.778 1397.86 139.308 1393.47 134.917C1389.08 130.526 1386.61 124.573 1386.6 118.363C1386.61 112.154 1389.08 106.201 1393.47 101.81ZM1400.19 128.194C1402.8 130.802 1406.34 132.269 1410.02 132.273C1413.71 132.268 1417.25 130.801 1419.85 128.194C1422.46 125.586 1423.93 122.051 1423.93 118.363C1423.93 114.676 1422.46 111.14 1419.85 108.533C1417.25 105.925 1413.71 104.458 1410.02 104.454C1406.34 104.458 1402.8 105.925 1400.19 108.532C1397.59 111.14 1396.12 114.676 1396.11 118.363C1396.12 122.051 1397.59 125.587 1400.19 128.194Z" fill="white"></path>
<path d="M1448.58 140.851H1439.21V95.8762H1448.58V140.851Z" fill="white"></path>
<path d="M1453.63 140.851H1463V95.8762H1453.63V140.851Z" fill="white"></path>
<path fill-rule="evenodd" clip-rule="evenodd" d="M1439.58 42.6943C1445.79 42.7014 1451.74 45.1714 1456.13 49.5622C1460.52 53.953 1462.99 59.9061 1463 66.1157C1462.99 72.3252 1460.52 78.2783 1456.13 82.6691C1451.74 87.06 1445.79 89.5299 1439.58 89.537C1433.37 89.5293 1427.42 87.0591 1423.03 82.6684C1418.64 78.2776 1416.17 72.3248 1416.16 66.1157C1416.17 59.9065 1418.64 53.9537 1423.03 49.563C1427.42 45.1722 1433.37 42.7021 1439.58 42.6943ZM1439.58 80.0254C1443.27 80.0212 1446.8 78.5544 1449.41 75.9467C1452.02 73.339 1453.48 69.8035 1453.49 66.1157C1453.48 62.4279 1452.02 58.8923 1449.41 56.2847C1446.8 53.677 1443.27 52.2101 1439.58 52.2059C1435.89 52.2101 1432.36 53.677 1429.75 56.2848C1427.14 58.8925 1425.67 62.4281 1425.67 66.1157C1425.68 69.8031 1427.14 73.3383 1429.75 75.9459C1432.36 78.5535 1435.89 80.0206 1439.58 80.0254Z" fill="white"></path>
<path d="M1410.39 88.6029H1401.02V43.6284H1410.39V88.6029Z" fill="white"></path>
<path fill-rule="evenodd" clip-rule="evenodd" d="M1371.83 42.6943C1378.04 42.7014 1384 45.1714 1388.39 49.5622C1392.78 53.953 1395.25 59.9061 1395.26 66.1157C1395.25 72.3252 1392.78 78.2783 1388.39 82.6691C1384 87.06 1378.04 89.5299 1371.83 89.537C1365.62 89.5293 1359.67 87.0591 1355.28 82.6684C1350.89 78.2776 1348.42 72.3248 1348.41 66.1157C1348.42 59.9065 1350.89 53.9537 1355.28 49.563C1359.67 45.1722 1365.62 42.7021 1371.83 42.6943ZM1371.83 80.0254C1375.52 80.0212 1379.06 78.5544 1381.67 75.9467C1384.27 73.339 1385.74 69.8035 1385.74 66.1157C1385.74 62.4279 1384.27 58.8923 1381.67 56.2847C1379.06 53.677 1375.52 52.2101 1371.83 52.2059C1368.15 52.2101 1364.61 53.677 1362 56.2848C1359.4 58.8925 1357.93 62.4281 1357.93 66.1157C1357.93 69.8031 1359.4 73.3383 1362 75.9459C1364.61 78.5535 1368.15 80.0206 1371.83 80.0254Z" fill="white"></path>
<path d="M1342.65 88.6029H1333.28V43.6284H1342.65V88.6029Z" fill="white"></path>
<path d="M1318.86 88.6029H1328.23V43.6284H1318.86V88.6029Z" fill="white"></path>
<path d="M1313.81 88.6029H1304.44V43.6284H1313.81V88.6029Z" fill="white"></path>
<path fill-rule="evenodd" clip-rule="evenodd" d="M1275.25 42.6943C1281.46 42.7014 1287.42 45.1714 1291.81 49.5622C1296.2 53.953 1298.67 59.9061 1298.67 66.1157C1298.67 72.3252 1296.2 78.2783 1291.81 82.6691C1287.42 87.06 1281.46 89.5299 1275.25 89.537C1269.04 89.5293 1263.09 87.0591 1258.7 82.6684C1254.31 78.2776 1251.84 72.3248 1251.83 66.1157C1251.84 59.9065 1254.31 53.9537 1258.7 49.563C1263.09 45.1722 1269.04 42.7021 1275.25 42.6943ZM1275.25 80.0254C1278.94 80.0212 1282.48 78.5544 1285.08 75.9467C1287.69 73.339 1289.16 69.8035 1289.16 66.1157C1289.16 62.4279 1287.69 58.8923 1285.08 56.2847C1282.48 53.677 1278.94 52.2101 1275.25 52.2059C1271.57 52.2101 1268.03 53.677 1265.42 56.2848C1262.82 58.8925 1261.35 62.4281 1261.35 66.1157C1261.35 69.8031 1262.82 73.3383 1265.42 75.9459C1268.03 78.5535 1271.57 80.0206 1275.25 80.0254Z" fill="white"></path>
<path d="M1246.07 88.6029H1236.7V43.6284H1246.07V88.6029Z" fill="white"></path>
<path fill-rule="evenodd" clip-rule="evenodd" d="M1171.46 49.5622C1167.07 45.1714 1161.11 42.7014 1154.9 42.6943C1148.69 42.7021 1142.74 45.1722 1138.35 49.563C1133.96 53.9537 1131.49 59.9065 1131.48 66.1157C1131.49 72.3248 1133.96 78.2776 1138.35 82.6684C1142.74 87.0591 1148.69 89.5293 1154.9 89.537C1161.11 89.5299 1167.07 87.06 1171.46 82.6691C1175.85 78.2783 1178.32 72.3252 1178.32 66.1157C1178.32 59.9061 1175.85 53.953 1171.46 49.5622ZM1164.73 75.9467C1162.13 78.5544 1158.59 80.0212 1154.9 80.0254C1151.21 80.0206 1147.68 78.5535 1145.07 75.9459C1142.47 73.3383 1141 69.8031 1140.99 66.1157C1141 62.4281 1142.46 58.8925 1145.07 56.2848C1147.68 53.677 1151.21 52.2101 1154.9 52.2059C1158.59 52.2101 1162.13 53.677 1164.73 56.2847C1167.34 58.8923 1168.81 62.4279 1168.81 66.1157C1168.81 69.8035 1167.34 73.339 1164.73 75.9467Z" fill="white"></path>
<path d="M1111.3 88.6029H1101.93V43.6284H1111.3V88.6029Z" fill="white"></path>
<path fill-rule="evenodd" clip-rule="evenodd" d="M1072.02 42.6943C1078.23 42.7014 1084.18 45.1714 1088.57 49.5622C1092.96 53.953 1095.43 59.9061 1095.44 66.1157C1095.43 72.3252 1092.96 78.2783 1088.57 82.6691C1084.18 87.06 1078.23 89.5299 1072.02 89.537C1065.81 89.5293 1059.86 87.0591 1055.47 82.6684C1051.08 78.2776 1048.61 72.3248 1048.6 66.1157C1048.61 59.9065 1051.08 53.9537 1055.47 49.563C1059.86 45.1722 1065.81 42.7021 1072.02 42.6943ZM1072.02 80.0254C1075.71 80.0212 1079.24 78.5544 1081.85 75.9467C1084.46 73.339 1085.93 69.8035 1085.93 66.1157C1085.93 62.4279 1084.46 58.8923 1081.85 56.2847C1079.24 53.677 1075.71 52.2101 1072.02 52.2059C1068.33 52.2101 1064.8 53.677 1062.19 56.2848C1059.58 58.8925 1058.12 62.4281 1058.11 66.1157C1058.12 69.8031 1059.58 73.3383 1062.19 75.9459C1064.8 78.5535 1068.33 80.0206 1072.02 80.0254Z" fill="white"></path>
<path d="M1042.83 88.6029H1033.46V43.6284H1042.83V88.6029Z" fill="white"></path>
<path fill-rule="evenodd" clip-rule="evenodd" d="M1004.27 42.6943C1010.48 42.7014 1016.44 45.1714 1020.83 49.5622C1025.22 53.953 1027.69 59.9061 1027.7 66.1157C1027.69 72.3252 1025.22 78.2783 1020.83 82.6691C1016.44 87.06 1010.48 89.5299 1004.27 89.537C998.066 89.5293 992.113 87.0591 987.723 82.6684C983.333 78.2776 980.863 72.3248 980.856 66.1157C980.863 59.9065 983.333 53.9537 987.723 49.563C992.113 45.1722 998.066 42.7021 1004.27 42.6943ZM1004.27 80.0254C1007.96 80.0212 1011.5 78.5544 1014.11 75.9467C1016.71 73.339 1018.18 69.8035 1018.18 66.1157C1018.18 62.4279 1016.71 58.8923 1014.11 56.2847C1011.5 53.677 1007.96 52.2101 1004.27 52.2059C1000.59 52.2101 997.052 53.677 994.445 56.2848C991.837 58.8925 990.371 62.4281 990.367 66.1157C990.372 69.8031 991.838 73.3383 994.445 75.9459C997.053 78.5535 1000.59 80.0206 1004.27 80.0254Z" fill="white"></path>
<path d="M975.09 88.6029H965.716V43.6284H975.09V88.6029Z" fill="white"></path>
<path d="M951.299 88.6029H960.672V43.6284H951.299V88.6029Z" fill="white"></path>
<path d="M946.253 88.6029H936.88V43.6284H946.253V88.6029Z" fill="white"></path>
<path fill-rule="evenodd" clip-rule="evenodd" d="M907.694 42.6943C913.904 42.7014 919.857 45.1714 924.248 49.5622C928.638 53.953 931.108 59.9061 931.115 66.1157C931.108 72.3252 928.638 78.2783 924.248 82.6691C919.857 87.06 913.904 89.5299 907.694 89.537C901.485 89.5293 895.532 87.0591 891.142 82.6684C886.752 78.2776 884.282 72.3248 884.275 66.1157C884.282 59.9065 886.752 53.9537 891.142 49.563C895.532 45.1722 901.485 42.7021 907.694 42.6943ZM907.694 80.0254C911.382 80.0212 914.917 78.5544 917.525 75.9467C920.133 73.339 921.6 69.8035 921.604 66.1157C921.6 62.4279 920.133 58.8923 917.525 56.2847C914.917 53.677 911.382 52.2101 907.694 52.2059C904.006 52.2101 900.471 53.677 897.864 56.2848C895.257 58.8925 893.79 62.4281 893.787 66.1157C893.791 69.8031 895.257 73.3383 897.864 75.9459C900.472 78.5535 904.007 80.0206 907.694 80.0254Z" fill="white"></path>
<path d="M878.509 88.6029H869.136V43.6284H878.509V88.6029Z" fill="white"></path>
<path fill-rule="evenodd" clip-rule="evenodd" d="M839.949 42.6943C846.159 42.7014 852.112 45.1714 856.503 49.5622C860.894 53.953 863.364 59.9061 863.371 66.1157C863.364 72.3252 860.894 78.2783 856.503 82.6691C852.112 87.06 846.159 89.5299 839.949 89.537C833.74 89.5293 827.788 87.0591 823.397 82.6684C819.007 78.2776 816.537 72.3248 816.53 66.1157C816.537 59.9065 819.007 53.9537 823.397 49.563C827.788 45.1722 833.74 42.7021 839.949 42.6943ZM839.949 80.0254C843.637 80.0212 847.173 78.5544 849.78 75.9467C852.388 73.339 853.855 69.8035 853.859 66.1157C853.855 62.4279 852.388 58.8923 849.78 56.2847C847.173 53.677 843.637 52.2101 839.949 52.2059C836.262 52.2101 832.726 53.677 830.119 56.2848C827.512 58.8925 826.045 62.4281 826.042 66.1157C826.046 69.8031 827.513 73.3383 830.12 75.9459C832.727 78.5535 836.262 80.0206 839.949 80.0254Z" fill="white"></path>
<path fill-rule="evenodd" clip-rule="evenodd" d="M803.897 49.5622C799.506 45.1714 793.553 42.7014 787.343 42.6943C781.134 42.7021 775.182 45.1722 770.791 49.563C766.401 53.9537 763.931 59.9065 763.924 66.1157C763.931 72.3248 766.401 78.2776 770.791 82.6684C775.182 87.0591 781.134 89.5293 787.343 89.537C793.553 89.5299 799.506 87.06 803.897 82.6691C808.288 78.2783 810.758 72.3252 810.765 66.1157C810.758 59.9061 808.288 53.953 803.897 49.5622ZM797.174 75.9467C794.567 78.5544 791.031 80.0212 787.343 80.0254C783.656 80.0206 780.121 78.5535 777.514 75.9459C774.907 73.3383 773.44 69.8031 773.436 66.1157C773.44 62.4281 774.906 58.8925 777.513 56.2848C780.12 53.677 783.656 52.2101 787.343 52.2059C791.031 52.2101 794.567 53.677 797.174 56.2847C799.782 58.8923 801.249 62.4279 801.253 66.1157C801.249 69.8035 799.782 73.339 797.174 75.9467Z" fill="white"></path>
<path d="M748.785 88.6029H758.159V43.6284H748.785V88.6029Z" fill="white"></path>
<path d="M743.741 88.6029H734.367V43.6284H743.741V88.6029Z" fill="white"></path>
<path fill-rule="evenodd" clip-rule="evenodd" d="M757.789 -9.5535C751.579 -9.5463 745.626 -7.07639 741.235 -2.68558C736.844 1.70523 734.374 7.65837 734.367 13.8679C734.374 20.0775 736.844 26.0306 741.235 30.4214C745.626 34.8122 751.579 37.2821 757.789 37.2893C763.998 37.2815 769.95 34.8114 774.341 30.4206C778.731 26.0299 781.201 20.0771 781.208 13.8679C781.201 7.65878 778.731 1.70596 774.341 -2.68477C769.95 -7.07552 763.998 -9.54568 757.789 -9.5535ZM757.789 27.7776C754.101 27.7734 750.565 26.3066 747.958 23.6989C745.35 21.0912 743.883 17.5557 743.879 13.8679C743.883 10.1801 745.35 6.64458 747.958 4.03691C750.565 1.42924 754.101 -0.0376129 757.789 -0.0418243C761.476 -0.0376129 765.012 1.42932 767.619 4.03703C770.226 6.64478 771.692 10.1803 771.696 13.8679C771.692 17.5553 770.225 21.0905 767.618 23.6981C765.011 26.3057 761.476 27.7728 757.789 27.7776Z" fill="white"></path>
<path d="M786.973 36.3551H796.347V-8.61929H786.973V36.3551Z" fill="white"></path>
<path fill-rule="evenodd" clip-rule="evenodd" d="M825.533 -9.5535C819.324 -9.5463 813.371 -7.07639 808.98 -2.68558C804.589 1.70523 802.119 7.65837 802.112 13.8679C802.119 20.0775 804.589 26.0306 808.98 30.4214C813.371 34.8122 819.324 37.2821 825.533 37.2893C831.742 37.2815 837.695 34.8114 842.085 30.4206C846.476 26.0299 848.945 20.0771 848.952 13.8679C848.945 7.65878 846.476 1.70596 842.085 -2.68477C837.695 -7.07552 831.742 -9.54568 825.533 -9.5535ZM825.533 27.7776C821.846 27.7734 818.31 26.3066 815.702 23.6989C813.095 21.0912 811.628 17.5557 811.624 13.8679C811.628 10.1801 813.095 6.64458 815.702 4.03691C818.31 1.42924 821.846 -0.0376129 825.533 -0.0418243C829.221 -0.0376129 832.756 1.42932 835.364 4.03703C837.971 6.64478 839.437 10.1803 839.441 13.8679C839.437 17.5553 837.97 21.0905 835.363 23.6981C832.756 26.3057 829.221 27.7728 825.533 27.7776Z" fill="white"></path>
<path d="M854.717 36.3551H864.091V-8.61929H854.717V36.3551Z" fill="white"></path>
<path d="M878.51 36.3551H869.136V-8.61929H878.51V36.3551Z" fill="white"></path>
<path d="M883.553 36.3551H892.927V-8.61929H883.553V36.3551Z" fill="white"></path>
<path fill-rule="evenodd" clip-rule="evenodd" d="M922.114 -9.5535C915.905 -9.5463 909.952 -7.07639 905.561 -2.68558C901.17 1.70523 898.7 7.65837 898.693 13.8679C898.7 20.0775 901.17 26.0306 905.561 30.4214C909.952 34.8122 915.905 37.2821 922.114 37.2893C928.323 37.2815 934.276 34.8114 938.666 30.4206C943.057 26.0299 945.526 20.0771 945.533 13.8679C945.526 7.65878 943.057 1.70596 938.666 -2.68477C934.276 -7.07552 928.323 -9.54568 922.114 -9.5535ZM922.114 27.7776C918.426 27.7734 914.891 26.3066 912.283 23.6989C909.676 21.0912 908.209 17.5557 908.205 13.8679C908.209 10.1801 909.676 6.64458 912.283 4.03691C914.891 1.42924 918.426 -0.0376129 922.114 -0.0418243C925.802 -0.0376129 929.337 1.42932 931.944 4.03703C934.552 6.64478 936.018 10.1803 936.022 13.8679C936.018 17.5553 934.551 21.0905 931.944 23.6981C929.337 26.3057 925.802 27.7728 922.114 27.7776Z" fill="white"></path>
<path d="M951.298 36.3551H960.672V-8.61929H951.298V36.3551Z" fill="white"></path>
<path fill-rule="evenodd" clip-rule="evenodd" d="M1025.91 -2.68558C1030.3 -7.07639 1036.25 -9.5463 1042.46 -9.5535C1048.67 -9.54568 1054.63 -7.07552 1059.02 -2.68477C1063.41 1.70596 1065.88 7.65878 1065.88 13.8679C1065.88 20.0771 1063.41 26.0299 1059.02 30.4206C1054.63 34.8114 1048.67 37.2815 1042.46 37.2893C1036.25 37.2821 1030.3 34.8122 1025.91 30.4214C1021.52 26.0306 1019.05 20.0775 1019.04 13.8679C1019.05 7.65837 1021.52 1.70523 1025.91 -2.68558ZM1032.63 23.6989C1035.24 26.3066 1038.78 27.7734 1042.46 27.7776C1046.15 27.7728 1049.69 26.3057 1052.29 23.6981C1054.9 21.0905 1056.37 17.5553 1056.37 13.8679C1056.37 10.1803 1054.9 6.64478 1052.29 4.03703C1049.69 1.42932 1046.15 -0.0376129 1042.46 -0.0418243C1038.78 -0.0376129 1035.24 1.42924 1032.63 4.03691C1030.03 6.64458 1028.56 10.1801 1028.55 13.8679C1028.56 17.5557 1030.03 21.0912 1032.63 23.6989Z" fill="white"></path>
<path d="M1081.02 36.3551H1071.65V-8.61929H1081.02V36.3551Z" fill="white"></path>
<path d="M1086.07 36.3551H1095.44V-8.61929H1086.07V36.3551Z" fill="white"></path>
<path d="M1154.53 36.3551H1163.91V-8.61929H1154.53V36.3551Z" fill="white"></path>
<path fill-rule="evenodd" clip-rule="evenodd" d="M1193.09 -9.5535C1186.88 -9.5463 1180.93 -7.07639 1176.54 -2.68558C1172.15 1.70523 1169.68 7.65837 1169.67 13.8679C1169.68 20.0775 1172.15 26.0306 1176.54 30.4214C1180.93 34.8122 1186.88 37.2821 1193.09 37.2893C1199.3 37.2815 1205.25 34.8114 1209.64 30.4206C1214.03 26.0299 1216.5 20.0771 1216.51 13.8679C1216.5 7.65878 1214.03 1.70596 1209.64 -2.68477C1205.25 -7.07552 1199.3 -9.54568 1193.09 -9.5535ZM1193.09 27.7776C1189.4 27.7734 1185.87 26.3066 1183.26 23.6989C1180.65 21.0912 1179.19 17.5557 1179.18 13.8679C1179.19 10.1801 1180.65 6.64458 1183.26 4.03691C1185.87 1.42924 1189.4 -0.0376129 1193.09 -0.0418243C1196.78 -0.0376129 1200.32 1.42932 1202.92 4.03703C1205.53 6.64478 1207 10.1803 1207 13.8679C1207 17.5553 1205.53 21.0905 1202.92 23.6981C1200.31 26.3057 1196.78 27.7728 1193.09 27.7776Z" fill="white"></path>
<path d="M1222.28 36.3551H1231.65V-8.61929H1222.28V36.3551Z" fill="white"></path>
<path d="M1246.07 36.3551H1236.7V-8.61929H1246.07V36.3551Z" fill="white"></path>
<path d="M1251.11 36.3551H1260.49V-8.61929H1251.11V36.3551Z" fill="white"></path>
<path d="M1318.86 36.3551H1328.23V-8.61929H1318.86V36.3551Z" fill="white"></path>
<path fill-rule="evenodd" clip-rule="evenodd" d="M1357.42 -9.5535C1351.21 -9.5463 1345.26 -7.07639 1340.86 -2.68558C1336.47 1.70523 1334 7.65837 1334 13.8679C1334 20.0775 1336.47 26.0306 1340.86 30.4214C1345.26 34.8122 1351.21 37.2821 1357.42 37.2893C1363.63 37.2815 1369.58 34.8114 1373.97 30.4206C1378.36 26.0299 1380.83 20.0771 1380.84 13.8679C1380.83 7.65878 1378.36 1.70596 1373.97 -2.68477C1369.58 -7.07552 1363.63 -9.54568 1357.42 -9.5535ZM1357.42 27.7776C1353.73 27.7734 1350.19 26.3066 1347.59 23.6989C1344.98 21.0912 1343.51 17.5557 1343.51 13.8679C1343.51 10.1801 1344.98 6.64458 1347.59 4.03691C1350.19 1.42924 1353.73 -0.0376129 1357.42 -0.0418243C1361.11 -0.0376129 1364.64 1.42932 1367.25 4.03703C1369.86 6.64478 1371.32 10.1803 1371.33 13.8679C1371.32 17.5553 1369.85 21.0905 1367.25 23.6981C1364.64 26.3057 1361.11 27.7728 1357.42 27.7776Z" fill="white"></path>
<path fill-rule="evenodd" clip-rule="evenodd" d="M1393.47 -2.68558C1397.86 -7.07639 1403.81 -9.5463 1410.02 -9.5535C1416.23 -9.54568 1422.19 -7.07552 1426.58 -2.68477C1430.97 1.70596 1433.44 7.65878 1433.44 13.8679C1433.44 20.0771 1430.97 26.0299 1426.58 30.4206C1422.19 34.8114 1416.23 37.2815 1410.02 37.2893C1403.81 37.2821 1397.86 34.8122 1393.47 30.4214C1389.08 26.0306 1386.61 20.0775 1386.6 13.8679C1386.61 7.65837 1389.08 1.70523 1393.47 -2.68558ZM1400.19 23.6989C1402.8 26.3066 1406.34 27.7734 1410.02 27.7776C1413.71 27.7728 1417.25 26.3057 1419.85 23.6981C1422.46 21.0905 1423.93 17.5553 1423.93 13.8679C1423.93 10.1803 1422.46 6.64478 1419.85 4.03703C1417.25 1.42932 1413.71 -0.0376129 1410.02 -0.0418243C1406.34 -0.0376129 1402.8 1.42924 1400.19 4.03691C1397.59 6.64458 1396.12 10.1801 1396.11 13.8679C1396.12 17.5557 1397.59 21.0912 1400.19 23.6989Z" fill="white"></path>
<path d="M1448.58 36.3551H1439.21V-8.61929H1448.58V36.3551Z" fill="white"></path>
<path d="M1453.63 36.3551H1463V-8.61929H1453.63V36.3551Z" fill="white"></path>
<path fill-rule="evenodd" clip-rule="evenodd" d="M1439.58 -61.8012C1445.79 -61.794 1451.74 -59.3241 1456.13 -54.9333C1460.52 -50.5425 1462.99 -44.5894 1463 -38.3799C1462.99 -32.1703 1460.52 -26.2172 1456.13 -21.8263C1451.74 -17.4355 1445.79 -14.9656 1439.58 -14.9584C1433.37 -14.9662 1427.42 -17.4364 1423.03 -21.8271C1418.64 -26.2179 1416.17 -32.1707 1416.16 -38.3799C1416.17 -44.589 1418.64 -50.5418 1423.03 -54.9325C1427.42 -59.3233 1433.37 -61.7934 1439.58 -61.8012ZM1439.58 -24.4701C1443.27 -24.4743 1446.8 -25.9412 1449.41 -28.5488C1452.02 -31.1565 1453.48 -34.692 1453.49 -38.3799C1453.48 -42.0676 1452.02 -45.6031 1449.41 -48.2108C1446.8 -50.8185 1443.27 -52.2853 1439.58 -52.2896C1435.89 -52.2853 1432.36 -50.8184 1429.75 -48.2107C1427.14 -45.603 1425.67 -42.0674 1425.67 -38.3799C1425.68 -34.6924 1427.14 -31.1572 1429.75 -28.5496C1432.36 -25.942 1435.89 -24.4749 1439.58 -24.4701Z" fill="white"></path>
<path d="M1410.39 -15.8926H1401.02V-60.867H1410.39V-15.8926Z" fill="white"></path>
<path fill-rule="evenodd" clip-rule="evenodd" d="M1371.83 -61.8012C1378.04 -61.794 1384 -59.3241 1388.39 -54.9333C1392.78 -50.5425 1395.25 -44.5894 1395.26 -38.3799C1395.25 -32.1703 1392.78 -26.2172 1388.39 -21.8263C1384 -17.4355 1378.04 -14.9656 1371.83 -14.9584C1365.62 -14.9662 1359.67 -17.4364 1355.28 -21.8271C1350.89 -26.2179 1348.42 -32.1707 1348.41 -38.3799C1348.42 -44.589 1350.89 -50.5418 1355.28 -54.9325C1359.67 -59.3233 1365.62 -61.7934 1371.83 -61.8012ZM1371.83 -24.4701C1375.52 -24.4743 1379.06 -25.9412 1381.67 -28.5488C1384.27 -31.1565 1385.74 -34.692 1385.74 -38.3799C1385.74 -42.0676 1384.27 -45.6031 1381.67 -48.2108C1379.06 -50.8185 1375.52 -52.2853 1371.83 -52.2896C1368.15 -52.2853 1364.61 -50.8184 1362 -48.2107C1359.4 -45.603 1357.93 -42.0674 1357.93 -38.3799C1357.93 -34.6924 1359.4 -31.1572 1362 -28.5496C1364.61 -25.942 1368.15 -24.4749 1371.83 -24.4701Z" fill="white"></path>
<path d="M1342.65 -15.8926H1333.28V-60.867H1342.65V-15.8926Z" fill="white"></path>
<path d="M1318.86 -15.8926H1328.23V-60.867H1318.86V-15.8926Z" fill="white"></path>
<path d="M1313.81 -15.8926H1304.44V-60.867H1313.81V-15.8926Z" fill="white"></path>
<path fill-rule="evenodd" clip-rule="evenodd" d="M1275.25 -61.8012C1281.46 -61.794 1287.42 -59.3241 1291.81 -54.9333C1296.2 -50.5425 1298.67 -44.5894 1298.67 -38.3799C1298.67 -32.1703 1296.2 -26.2172 1291.81 -21.8263C1287.42 -17.4355 1281.46 -14.9656 1275.25 -14.9584C1269.04 -14.9662 1263.09 -17.4364 1258.7 -21.8271C1254.31 -26.2179 1251.84 -32.1707 1251.83 -38.3799C1251.84 -44.589 1254.31 -50.5418 1258.7 -54.9325C1263.09 -59.3233 1269.04 -61.7934 1275.25 -61.8012ZM1275.25 -24.4701C1278.94 -24.4743 1282.48 -25.9412 1285.08 -28.5488C1287.69 -31.1565 1289.16 -34.692 1289.16 -38.3799C1289.16 -42.0676 1287.69 -45.6031 1285.08 -48.2108C1282.48 -50.8185 1278.94 -52.2853 1275.25 -52.2896C1271.57 -52.2853 1268.03 -50.8184 1265.42 -48.2107C1262.82 -45.603 1261.35 -42.0674 1261.35 -38.3799C1261.35 -34.6924 1262.82 -31.1572 1265.42 -28.5496C1268.03 -25.942 1271.57 -24.4749 1275.25 -24.4701Z" fill="white"></path>
<path d="M1246.07 -15.8926H1236.7V-60.867H1246.07V-15.8926Z" fill="white"></path>
<path fill-rule="evenodd" clip-rule="evenodd" d="M1207.51 -61.8012C1213.72 -61.794 1219.67 -59.3241 1224.06 -54.9333C1228.45 -50.5425 1230.92 -44.5894 1230.93 -38.3799C1230.92 -32.1703 1228.45 -26.2172 1224.06 -21.8263C1219.67 -17.4355 1213.72 -14.9656 1207.51 -14.9584C1201.3 -14.9662 1195.35 -17.4364 1190.96 -21.8271C1186.57 -26.2179 1184.1 -32.1707 1184.09 -38.3799C1184.1 -44.589 1186.57 -50.5418 1190.96 -54.9325C1195.35 -59.3233 1201.3 -61.7934 1207.51 -61.8012ZM1207.51 -24.4701C1211.2 -24.4743 1214.73 -25.9412 1217.34 -28.5488C1219.95 -31.1565 1221.41 -34.692 1221.42 -38.3799C1221.41 -42.0676 1219.95 -45.6031 1217.34 -48.2108C1214.73 -50.8185 1211.2 -52.2853 1207.51 -52.2896C1203.82 -52.2853 1200.29 -50.8184 1197.68 -48.2107C1195.07 -45.603 1193.6 -42.0674 1193.6 -38.3799C1193.61 -34.6924 1195.07 -31.1572 1197.68 -28.5496C1200.29 -25.942 1203.82 -24.4749 1207.51 -24.4701Z" fill="white"></path>
<path fill-rule="evenodd" clip-rule="evenodd" d="M1171.46 -54.9333C1167.07 -59.3241 1161.11 -61.794 1154.9 -61.8012C1148.69 -61.7934 1142.74 -59.3233 1138.35 -54.9325C1133.96 -50.5418 1131.49 -44.589 1131.48 -38.3799C1131.49 -32.1707 1133.96 -26.2179 1138.35 -21.8271C1142.74 -17.4364 1148.69 -14.9662 1154.9 -14.9584C1161.11 -14.9656 1167.07 -17.4355 1171.46 -21.8263C1175.85 -26.2172 1178.32 -32.1703 1178.32 -38.3799C1178.32 -44.5894 1175.85 -50.5425 1171.46 -54.9333ZM1164.73 -28.5488C1162.13 -25.9412 1158.59 -24.4743 1154.9 -24.4701C1151.21 -24.4749 1147.68 -25.942 1145.07 -28.5496C1142.47 -31.1572 1141 -34.6924 1140.99 -38.3799C1141 -42.0674 1142.46 -45.603 1145.07 -48.2107C1147.68 -50.8184 1151.21 -52.2853 1154.9 -52.2896C1158.59 -52.2853 1162.13 -50.8185 1164.73 -48.2108C1167.34 -45.6031 1168.81 -42.0676 1168.81 -38.3799C1168.81 -34.692 1167.34 -31.1565 1164.73 -28.5488Z" fill="white"></path>
<path d="M1116.35 -15.8926H1125.72V-60.867H1116.35V-15.8926Z" fill="white"></path>
<path d="M1111.3 -15.8926H1101.93V-60.867H1111.3V-15.8926Z" fill="white"></path>
<path fill-rule="evenodd" clip-rule="evenodd" d="M1072.02 -61.8012C1078.23 -61.794 1084.18 -59.3241 1088.57 -54.9333C1092.96 -50.5425 1095.43 -44.5894 1095.44 -38.3799C1095.43 -32.1703 1092.96 -26.2172 1088.57 -21.8263C1084.18 -17.4355 1078.23 -14.9656 1072.02 -14.9584C1065.81 -14.9662 1059.86 -17.4364 1055.47 -21.8271C1051.08 -26.2179 1048.61 -32.1707 1048.6 -38.3799C1048.61 -44.589 1051.08 -50.5418 1055.47 -54.9325C1059.86 -59.3233 1065.81 -61.7934 1072.02 -61.8012ZM1072.02 -24.4701C1075.71 -24.4743 1079.24 -25.9412 1081.85 -28.5488C1084.46 -31.1565 1085.93 -34.692 1085.93 -38.3799C1085.93 -42.0676 1084.46 -45.6031 1081.85 -48.2108C1079.24 -50.8185 1075.71 -52.2853 1072.02 -52.2896C1068.33 -52.2853 1064.8 -50.8184 1062.19 -48.2107C1059.58 -45.603 1058.12 -42.0674 1058.11 -38.3799C1058.12 -34.6924 1059.58 -31.1572 1062.19 -28.5496C1064.8 -25.942 1068.33 -24.4749 1072.02 -24.4701Z" fill="white"></path>
<path d="M1042.83 -15.8926H1033.46V-60.867H1042.83V-15.8926Z" fill="white"></path>
<path fill-rule="evenodd" clip-rule="evenodd" d="M1004.27 -61.8012C1010.48 -61.794 1016.44 -59.3241 1020.83 -54.9333C1025.22 -50.5425 1027.69 -44.5894 1027.7 -38.3799C1027.69 -32.1703 1025.22 -26.2172 1020.83 -21.8263C1016.44 -17.4355 1010.48 -14.9656 1004.27 -14.9584C998.066 -14.9662 992.113 -17.4364 987.723 -21.8271C983.333 -26.2179 980.863 -32.1707 980.856 -38.3799C980.863 -44.589 983.333 -50.5418 987.723 -54.9325C992.113 -59.3233 998.066 -61.7934 1004.27 -61.8012ZM1004.27 -24.4701C1007.96 -24.4743 1011.5 -25.9412 1014.11 -28.5488C1016.71 -31.1565 1018.18 -34.692 1018.18 -38.3799C1018.18 -42.0676 1016.71 -45.6031 1014.11 -48.2108C1011.5 -50.8185 1007.96 -52.2853 1004.27 -52.2896C1000.59 -52.2853 997.052 -50.8184 994.445 -48.2107C991.837 -45.603 990.371 -42.0674 990.367 -38.3799C990.372 -34.6924 991.838 -31.1572 994.445 -28.5496C997.053 -25.942 1000.59 -24.4749 1004.27 -24.4701Z" fill="white"></path>
<path d="M975.09 -15.8926H965.716V-60.867H975.09V-15.8926Z" fill="white"></path>
<path d="M951.299 -15.8926H960.672V-60.867H951.299V-15.8926Z" fill="white"></path>
<path d="M946.253 -15.8926H936.88V-60.867H946.253V-15.8926Z" fill="white"></path>
<path fill-rule="evenodd" clip-rule="evenodd" d="M907.694 -61.8012C913.904 -61.794 919.857 -59.3241 924.248 -54.9333C928.638 -50.5425 931.108 -44.5894 931.115 -38.3799C931.108 -32.1703 928.638 -26.2172 924.248 -21.8263C919.857 -17.4355 913.904 -14.9656 907.694 -14.9584C901.485 -14.9662 895.532 -17.4364 891.142 -21.8271C886.752 -26.2179 884.282 -32.1707 884.275 -38.3799C884.282 -44.589 886.752 -50.5418 891.142 -54.9325C895.532 -59.3233 901.485 -61.7934 907.694 -61.8012ZM907.694 -24.4701C911.382 -24.4743 914.917 -25.9412 917.525 -28.5488C920.133 -31.1565 921.6 -34.692 921.604 -38.3799C921.6 -42.0676 920.133 -45.6031 917.525 -48.2108C914.917 -50.8185 911.382 -52.2853 907.694 -52.2896C904.006 -52.2853 900.471 -50.8184 897.864 -48.2107C895.257 -45.603 893.79 -42.0674 893.787 -38.3799C893.791 -34.6924 895.257 -31.1572 897.864 -28.5496C900.472 -25.942 904.007 -24.4749 907.694 -24.4701Z" fill="white"></path>
<path d="M878.509 -15.8926H869.136V-60.867H878.509V-15.8926Z" fill="white"></path>
<path fill-rule="evenodd" clip-rule="evenodd" d="M839.949 -61.8012C846.159 -61.794 852.112 -59.3241 856.503 -54.9333C860.894 -50.5425 863.364 -44.5894 863.371 -38.3799C863.364 -32.1703 860.894 -26.2172 856.503 -21.8263C852.112 -17.4355 846.159 -14.9656 839.949 -14.9584C833.74 -14.9662 827.788 -17.4364 823.397 -21.8271C819.007 -26.2179 816.537 -32.1707 816.53 -38.3799C816.537 -44.589 819.007 -50.5418 823.397 -54.9325C827.788 -59.3233 833.74 -61.7934 839.949 -61.8012ZM839.949 -24.4701C843.637 -24.4743 847.173 -25.9412 849.78 -28.5488C852.388 -31.1565 853.855 -34.692 853.859 -38.3799C853.855 -42.0676 852.388 -45.6031 849.78 -48.2108C847.173 -50.8185 843.637 -52.2853 839.949 -52.2896C836.262 -52.2853 832.726 -50.8184 830.119 -48.2107C827.512 -45.603 826.045 -42.0674 826.042 -38.3799C826.046 -34.6924 827.513 -31.1572 830.12 -28.5496C832.727 -25.942 836.262 -24.4749 839.949 -24.4701Z" fill="white"></path>
<path fill-rule="evenodd" clip-rule="evenodd" d="M803.897 -54.9333C799.506 -59.3241 793.553 -61.794 787.343 -61.8012C781.134 -61.7934 775.182 -59.3233 770.791 -54.9325C766.401 -50.5418 763.931 -44.589 763.924 -38.3799C763.931 -32.1707 766.401 -26.2179 770.791 -21.8271C775.182 -17.4364 781.134 -14.9662 787.343 -14.9584C793.553 -14.9656 799.506 -17.4355 803.897 -21.8263C808.288 -26.2172 810.758 -32.1703 810.765 -38.3799C810.758 -44.5894 808.288 -50.5425 803.897 -54.9333ZM797.174 -28.5488C794.567 -25.9412 791.031 -24.4743 787.343 -24.4701C783.656 -24.4749 780.121 -25.942 777.514 -28.5496C774.907 -31.1572 773.44 -34.6924 773.436 -38.3799C773.44 -42.0674 774.906 -45.603 777.513 -48.2107C780.12 -50.8184 783.656 -52.2853 787.343 -52.2896C791.031 -52.2853 794.567 -50.8185 797.174 -48.2108C799.782 -45.6031 801.249 -42.0676 801.253 -38.3799C801.249 -34.692 799.782 -31.1565 797.174 -28.5488Z" fill="white"></path>
<path d="M748.785 -15.8926H758.159V-60.867H748.785V-15.8926Z" fill="white"></path>
<path d="M743.741 -15.8926H734.367V-60.867H743.741V-15.8926Z" fill="white"></path>
<path fill-rule="evenodd" clip-rule="evenodd" d="M648.069 135.129C652.477 139.537 658.453 142.016 664.687 142.024C670.92 142.016 676.895 139.536 681.303 135.128C685.71 130.721 688.189 124.745 688.196 118.512C688.189 112.279 685.71 106.303 681.303 101.895C676.895 97.4875 670.92 95.0078 664.687 95C658.453 95.0072 652.477 97.4867 648.069 101.894C643.661 106.302 641.182 112.278 641.175 118.512C641.182 124.745 643.661 130.721 648.069 135.129ZM654.818 108.643C657.435 106.025 660.985 104.553 664.687 104.548C668.388 104.553 671.937 106.026 674.554 108.644C677.171 111.261 678.644 114.81 678.648 118.512C678.644 122.214 677.172 125.763 674.555 128.381C671.937 130.998 668.388 132.471 664.687 132.475C660.985 132.471 657.435 130.999 654.818 128.381C652.2 125.763 650.727 122.214 650.723 118.512C650.727 114.81 652.2 111.261 654.818 108.643ZM601.078 125.222C601.509 130.295 603.379 134.293 606.689 137.217C610.001 140.142 614.391 141.605 619.861 141.605C623.043 141.603 625.902 141.023 628.439 139.863C630.976 138.699 632.954 137.054 634.373 134.928C635.791 132.801 636.5 130.34 636.5 127.544C636.502 124.235 635.728 121.59 634.179 119.609C632.76 117.735 630.88 116.258 628.723 115.322C626.199 114.298 623.6 113.468 620.95 112.839C619.103 112.407 617.684 112.02 616.694 111.677C615.785 111.379 614.941 110.908 614.209 110.291C613.887 110.018 613.63 109.676 613.457 109.291C613.285 108.906 613.201 108.487 613.211 108.065C613.197 107.501 613.325 106.942 613.584 106.44C613.844 105.939 614.225 105.511 614.694 105.196C615.682 104.487 617.037 104.132 618.759 104.132C620.694 104.132 622.349 104.626 623.724 105.614C624.389 106.079 624.955 106.672 625.386 107.359C625.818 108.046 626.108 108.812 626.238 109.613H636.171C635.651 105.225 633.832 101.764 630.715 99.2281C627.597 96.6924 623.609 95.4246 618.752 95.4246C616.019 95.3932 613.313 95.954 610.818 97.0683C608.527 98.0681 606.554 99.674 605.109 101.713C603.714 103.705 602.981 106.085 603.013 108.517C603.013 111.656 603.733 114.128 605.175 115.933C606.53 117.674 608.29 119.058 610.301 119.964C612.747 121.007 615.27 121.859 617.847 122.513C619.782 123.035 621.298 123.49 622.394 123.877C623.417 124.218 624.352 124.779 625.136 125.52C625.495 125.866 625.778 126.282 625.967 126.743C626.156 127.205 626.246 127.7 626.231 128.198C626.255 129.113 625.972 130.01 625.427 130.745C624.843 131.487 624.06 132.047 623.169 132.359C622.104 132.74 620.979 132.925 619.848 132.907C617.309 132.911 615.277 132.244 613.753 130.906C612.228 129.568 611.314 127.673 611.011 125.222H601.078ZM732.023 142.024C725.789 142.016 719.813 139.537 715.405 135.129C710.997 130.721 708.518 124.745 708.511 118.512C708.518 112.278 710.997 106.302 715.405 101.894C719.813 97.4867 725.789 95.0072 732.023 95C738.256 95.0078 744.231 97.4875 748.638 101.895C753.046 106.303 755.525 112.279 755.532 118.512C755.525 124.745 753.046 130.721 748.638 135.128C744.231 139.536 738.256 142.016 732.023 142.024ZM732.023 104.548C728.32 104.553 724.771 106.025 722.154 108.643C719.536 111.261 718.063 114.81 718.059 118.512C718.063 122.214 719.536 125.763 722.154 128.381C724.771 130.999 728.32 132.471 732.023 132.475C735.724 132.471 739.273 130.998 741.891 128.381C744.508 125.763 745.98 122.214 745.984 118.512C745.979 114.81 744.507 111.261 741.89 108.644C739.273 106.026 735.724 104.553 732.023 104.548ZM704.778 129.775C706.26 133.345 708.434 136.587 711.174 139.314L704.499 146C700.878 142.397 698.004 138.114 696.043 133.396C694.083 128.679 693.074 123.62 693.075 118.512V95.9367H702.535V118.512C702.533 122.377 703.295 126.205 704.778 129.775Z" fill="white"></path>
<path fill-rule="evenodd" clip-rule="evenodd" d="M793.354 135.129C797.762 139.537 803.738 142.016 809.971 142.024C816.204 142.016 822.18 139.536 826.587 135.128C830.994 130.721 833.474 124.745 833.481 118.512C833.474 112.279 830.994 106.303 826.587 101.895C822.18 97.4875 816.204 95.0078 809.971 95C803.738 95.0072 797.762 97.4867 793.354 101.894C788.946 106.302 786.467 112.278 786.459 118.512C786.467 124.745 788.946 130.721 793.354 135.129ZM800.102 108.643C802.72 106.025 806.269 104.553 809.971 104.548C813.673 104.553 817.222 106.026 819.839 108.644C822.456 111.261 823.928 114.81 823.932 118.512C823.929 122.214 822.457 125.763 819.839 128.381C817.222 130.998 813.673 132.471 809.971 132.475C806.269 132.471 802.72 130.999 800.102 128.381C797.485 125.763 796.012 122.214 796.008 118.512C796.012 114.81 797.485 111.261 800.102 108.643ZM771.491 95.9367H780.901V141.085H771.491V95.9367Z" fill="white"></path>
<path d="M760.876 142.022C764.243 142.022 766.973 139.292 766.973 135.925C766.973 132.558 764.243 129.828 760.876 129.828C757.508 129.828 754.778 132.558 754.778 135.925C754.778 139.292 757.508 142.022 760.876 142.022Z" fill="white"></path>
</g>
</g>
<defs>
<linearGradient id="paint0_linear_30243_138531" x1="753.5" y1="-101" x2="753.5" y2="350.5" gradientUnits="userSpaceOnUse">
<stop stop-color="#737373"></stop>
<stop offset="1" stop-color="#D9D9D9" stop-opacity="0"></stop>
</linearGradient>
<clipPath id="clip0_30243_138531">
<rect width="1440" height="323" fill="white" transform="matrix(1 0 0 -1 0 323)"></rect>
</clipPath>
</defs>
</svg>