<svg width="2170" height="1526" viewBox="0 0 2170 1526" fill="none" xmlns="http://www.w3.org/2000/svg">
<g clip-path="url(#clip0_10098_59238)">
<rect width="2170" height="1526" fill="url(#paint0_radial_10098_59238)" fill-opacity="0.8"></rect>
<path d="M1085.01 -636C312.35 -636 -314 -9.63995 -314 763.02C-314 1535.68 312.35 2162.03 1085.01 2162.03C1857.67 2162.03 2484.02 1535.67 2484.02 763.02C2484.02 -9.63 1857.66 -636 1085.01 -636ZM1085.01 2009.55C396.56 2009.55 -161.53 1451.46 -161.53 763.02C-161.53 74.58 396.56 -483.52 1085.01 -483.52C1773.46 -483.52 2331.55 74.57 2331.55 763.02C2331.55 1451.47 1773.45 2009.55 1085.01 2009.55Z" fill="url(#paint1_linear_10098_59238)"></path>
<path d="M1085.01 -636C312.35 -636 -314 -9.63995 -314 763.02C-314 1535.68 312.35 2162.03 1085.01 2162.03C1857.67 2162.03 2484.02 1535.67 2484.02 763.02C2484.02 -9.63 1857.66 -636 1085.01 -636ZM1085.01 2009.55C396.56 2009.55 -161.53 1451.46 -161.53 763.02C-161.53 74.58 396.56 -483.52 1085.01 -483.52C1773.46 -483.52 2331.55 74.57 2331.55 763.02C2331.55 1451.47 1773.45 2009.55 1085.01 2009.55Z" fill="url(#paint2_radial_10098_59238)" fill-opacity="0.4"></path>
<path d="M1085.01 -483.52C396.56 -483.52 -161.53 74.57 -161.53 763.02C-161.53 1451.47 396.56 2009.55 1085.01 2009.55C1773.46 2009.55 2331.55 1451.46 2331.55 763.02C2331.55 74.58 1773.45 -483.52 1085.01 -483.52ZM1085.01 1832C494.62 1832 16.02 1353.4 16.02 763.02C16.02 172.64 494.62 -305.97 1085.01 -305.97C1675.4 -305.97 2153.99 172.63 2153.99 763.02C2153.99 1353.41 1675.39 1832 1085.01 1832Z" fill="url(#paint3_linear_10098_59238)"></path>
<path d="M1085.01 -483.52C396.56 -483.52 -161.53 74.57 -161.53 763.02C-161.53 1451.47 396.56 2009.55 1085.01 2009.55C1773.46 2009.55 2331.55 1451.46 2331.55 763.02C2331.55 74.58 1773.45 -483.52 1085.01 -483.52ZM1085.01 1832C494.62 1832 16.02 1353.4 16.02 763.02C16.02 172.64 494.62 -305.97 1085.01 -305.97C1675.4 -305.97 2153.99 172.63 2153.99 763.02C2153.99 1353.41 1675.39 1832 1085.01 1832Z" fill="url(#paint4_radial_10098_59238)" fill-opacity="0.4"></path>
<path d="M1085.01 -305.97C494.62 -305.97 16.02 172.63 16.02 763.02C16.02 1353.41 494.62 1832 1085.01 1832C1675.4 1832 2153.99 1353.4 2153.99 763.02C2153.99 172.64 1675.39 -305.97 1085.01 -305.97ZM1085.01 1663.2C587.85 1663.2 184.83 1260.17 184.83 763.02C184.83 265.87 587.85 -137.16 1085.01 -137.16C1582.17 -137.16 1985.19 265.86 1985.19 763.02C1985.19 1260.18 1582.16 1663.2 1085.01 1663.2Z" fill="url(#paint5_linear_10098_59238)"></path>
<path d="M1085.01 -305.97C494.62 -305.97 16.02 172.63 16.02 763.02C16.02 1353.41 494.62 1832 1085.01 1832C1675.4 1832 2153.99 1353.4 2153.99 763.02C2153.99 172.64 1675.39 -305.97 1085.01 -305.97ZM1085.01 1663.2C587.85 1663.2 184.83 1260.17 184.83 763.02C184.83 265.87 587.85 -137.16 1085.01 -137.16C1582.17 -137.16 1985.19 265.86 1985.19 763.02C1985.19 1260.18 1582.16 1663.2 1085.01 1663.2Z" fill="url(#paint6_radial_10098_59238)" fill-opacity="0.4"></path>
<path d="M1085.01 -305.97C494.62 -305.97 16.02 172.63 16.02 763.02C16.02 1353.41 494.62 1832 1085.01 1832C1675.4 1832 2153.99 1353.4 2153.99 763.02C2153.99 172.64 1675.39 -305.97 1085.01 -305.97ZM1085.01 1663.2C587.85 1663.2 184.83 1260.17 184.83 763.02C184.83 265.87 587.85 -137.16 1085.01 -137.16C1582.17 -137.16 1985.19 265.86 1985.19 763.02C1985.19 1260.18 1582.16 1663.2 1085.01 1663.2Z" fill="url(#paint7_radial_10098_59238)" fill-opacity="0.8"></path>
<path d="M1085.01 -137C587.85 -137 184.83 266.02 184.83 763.18C184.83 1260.34 587.85 1663.36 1085.01 1663.36C1582.17 1663.36 1985.19 1260.33 1985.19 763.18C1985.19 266.03 1582.16 -137 1085.01 -137ZM1085.01 1496.93C679.77 1496.93 351.26 1168.42 351.26 763.18C351.26 357.94 679.77 29.42 1085.01 29.42C1490.25 29.42 1818.76 357.94 1818.76 763.18C1818.76 1168.42 1490.25 1496.93 1085.01 1496.93Z" fill="url(#paint8_linear_10098_59238)"></path>
<path d="M1085.01 -137C587.85 -137 184.83 266.02 184.83 763.18C184.83 1260.34 587.85 1663.36 1085.01 1663.36C1582.17 1663.36 1985.19 1260.33 1985.19 763.18C1985.19 266.03 1582.16 -137 1085.01 -137ZM1085.01 1496.93C679.77 1496.93 351.26 1168.42 351.26 763.18C351.26 357.94 679.77 29.42 1085.01 29.42C1490.25 29.42 1818.76 357.94 1818.76 763.18C1818.76 1168.42 1490.25 1496.93 1085.01 1496.93Z" fill="url(#paint9_radial_10098_59238)" fill-opacity="0.4"></path>
<path d="M1085.01 -137C587.85 -137 184.83 266.02 184.83 763.18C184.83 1260.34 587.85 1663.36 1085.01 1663.36C1582.17 1663.36 1985.19 1260.33 1985.19 763.18C1985.19 266.03 1582.16 -137 1085.01 -137ZM1085.01 1496.93C679.77 1496.93 351.26 1168.42 351.26 763.18C351.26 357.94 679.77 29.42 1085.01 29.42C1490.25 29.42 1818.76 357.94 1818.76 763.18C1818.76 1168.42 1490.25 1496.93 1085.01 1496.93Z" fill="url(#paint10_radial_10098_59238)" fill-opacity="0.2"></path>
<path d="M1085.01 -137C587.85 -137 184.83 266.02 184.83 763.18C184.83 1260.34 587.85 1663.36 1085.01 1663.36C1582.17 1663.36 1985.19 1260.33 1985.19 763.18C1985.19 266.03 1582.16 -137 1085.01 -137ZM1085.01 1496.93C679.77 1496.93 351.26 1168.42 351.26 763.18C351.26 357.94 679.77 29.42 1085.01 29.42C1490.25 29.42 1818.76 357.94 1818.76 763.18C1818.76 1168.42 1490.25 1496.93 1085.01 1496.93Z" fill="url(#paint11_radial_10098_59238)" fill-opacity="0.8"></path>
<g filter="url(#filter0_i_10098_59238)">
<path fill-rule="evenodd" clip-rule="evenodd" d="M184.83 763.02C184.83 265.86 587.85 -137.16 1085.01 -137.16C1582.16 -137.16 1985.19 265.87 1985.19 763.02C1985.19 771.381 1985.08 779.715 1984.85 788.02C1971.61 302.429 1573.8 -87.1599 1085.01 -87.1599C596.21 -87.1599 198.411 302.419 185.17 788.02C184.944 779.714 184.83 771.381 184.83 763.02Z" fill="#191D2E"></path>
</g>
<g filter="url(#filter1_i_10098_59238)">
<path d="M1085 29C679.622 29 351 357.63 351 763.005C351 1168.38 679.622 1497 1085 1497C1490.38 1497 1819 1168.38 1819 763.005C1819 357.63 1490.38 29 1085 29ZM1085 1347.01C762.45 1347.01 500.981 1085.54 500.981 763.005C500.981 440.467 762.45 178.99 1085 178.99C1407.55 178.99 1669.01 440.457 1669.01 763.005C1669.01 1085.55 1407.54 1347.01 1085 1347.01Z" fill="url(#paint12_linear_10098_59238)"></path>
<path d="M1085 29C679.622 29 351 357.63 351 763.005C351 1168.38 679.622 1497 1085 1497C1490.38 1497 1819 1168.38 1819 763.005C1819 357.63 1490.38 29 1085 29ZM1085 1347.01C762.45 1347.01 500.981 1085.54 500.981 763.005C500.981 440.467 762.45 178.99 1085 178.99C1407.55 178.99 1669.01 440.457 1669.01 763.005C1669.01 1085.55 1407.54 1347.01 1085 1347.01Z" fill="url(#paint13_radial_10098_59238)" fill-opacity="0.2"></path>
<path d="M1085 29C679.622 29 351 357.63 351 763.005C351 1168.38 679.622 1497 1085 1497C1490.38 1497 1819 1168.38 1819 763.005C1819 357.63 1490.38 29 1085 29ZM1085 1347.01C762.45 1347.01 500.981 1085.54 500.981 763.005C500.981 440.467 762.45 178.99 1085 178.99C1407.55 178.99 1669.01 440.457 1669.01 763.005C1669.01 1085.55 1407.54 1347.01 1085 1347.01Z" fill="url(#paint14_radial_10098_59238)" fill-opacity="0.8"></path>
</g>
<g filter="url(#filter2_i_10098_59238)">
<path fill-rule="evenodd" clip-rule="evenodd" d="M351.26 762.76C351.26 357.52 679.77 29 1085.01 29C1490.25 29 1818.76 357.52 1818.76 762.76C1818.76 772.808 1818.56 782.81 1818.16 792.76C1802.42 401.43 1480.2 89 1085.01 89C689.818 89 367.599 401.43 351.862 792.76C351.462 782.81 351.26 772.808 351.26 762.76Z" fill="#191D2E"></path>
</g>
<g filter="url(#filter3_i_10098_59238)">
<path d="M1085.01 179.2C762.57 179.2 501.19 440.58 501.19 763.02C501.19 1085.46 762.57 1346.83 1085.01 1346.83C1407.45 1346.83 1668.82 1085.45 1668.82 763.02C1668.82 440.59 1407.44 179.2 1085.01 179.2ZM1085.01 1206.35C840.16 1206.35 641.67 1007.86 641.67 763.02C641.67 518.18 840.16 319.68 1085.01 319.68C1329.86 319.68 1528.34 518.17 1528.34 763.02C1528.34 1007.87 1329.85 1206.35 1085.01 1206.35Z" fill="url(#paint15_linear_10098_59238)"></path>
<path d="M1085.01 179.2C762.57 179.2 501.19 440.58 501.19 763.02C501.19 1085.46 762.57 1346.83 1085.01 1346.83C1407.45 1346.83 1668.82 1085.45 1668.82 763.02C1668.82 440.59 1407.44 179.2 1085.01 179.2ZM1085.01 1206.35C840.16 1206.35 641.67 1007.86 641.67 763.02C641.67 518.18 840.16 319.68 1085.01 319.68C1329.86 319.68 1528.34 518.17 1528.34 763.02C1528.34 1007.87 1329.85 1206.35 1085.01 1206.35Z" fill="url(#paint16_radial_10098_59238)" fill-opacity="0.2"></path>
<path d="M1085.01 179.2C762.57 179.2 501.19 440.58 501.19 763.02C501.19 1085.46 762.57 1346.83 1085.01 1346.83C1407.45 1346.83 1668.82 1085.45 1668.82 763.02C1668.82 440.59 1407.44 179.2 1085.01 179.2ZM1085.01 1206.35C840.16 1206.35 641.67 1007.86 641.67 763.02C641.67 518.18 840.16 319.68 1085.01 319.68C1329.86 319.68 1528.34 518.17 1528.34 763.02C1528.34 1007.87 1329.85 1206.35 1085.01 1206.35Z" fill="url(#paint17_radial_10098_59238)" fill-opacity="0.7"></path>
</g>
<g filter="url(#filter4_if_10098_59238)">
<path fill-rule="evenodd" clip-rule="evenodd" d="M501.19 763.02C501.19 440.58 762.57 179.2 1085.01 179.2C1407.44 179.2 1668.82 440.59 1668.82 763.02C1668.82 767.532 1668.77 772.032 1668.67 776.52C1661.49 460.325 1402.93 206.2 1085.01 206.2C767.082 206.2 508.517 460.316 501.343 776.52C501.241 772.032 501.19 767.532 501.19 763.02ZM641.672 761.52C642.481 517.37 840.66 319.68 1085.01 319.68C1329.36 319.68 1527.53 517.36 1528.34 761.52C1528.34 761.02 1528.34 760.52 1528.34 760.02C1528.34 515.17 1329.86 316.68 1085.01 316.68C840.16 316.68 641.67 515.18 641.67 760.02C641.67 760.52 641.671 761.02 641.672 761.52Z" fill="#191D2F"></path>
</g>
<g filter="url(#filter5_ddii_10098_59238)">
<path d="M1085.01 319.68C840.16 319.68 641.67 518.17 641.67 763.02C641.67 1007.87 840.16 1206.35 1085.01 1206.35C1329.86 1206.35 1528.34 1007.86 1528.34 763.02C1528.34 518.18 1329.85 319.68 1085.01 319.68ZM1085.01 1062.84C919.42 1062.84 785.19 928.6 785.19 763.02C785.19 597.44 919.42 493.19 1085.01 493.19C1250.6 493.19 1384.83 597.43 1384.83 763.02C1384.83 928.61 1250.59 1062.84 1085.01 1062.84Z" fill="url(#paint18_linear_10098_59238)"></path>
<path d="M1085.01 319.68C840.16 319.68 641.67 518.17 641.67 763.02C641.67 1007.87 840.16 1206.35 1085.01 1206.35C1329.86 1206.35 1528.34 1007.86 1528.34 763.02C1528.34 518.18 1329.85 319.68 1085.01 319.68ZM1085.01 1062.84C919.42 1062.84 785.19 928.6 785.19 763.02C785.19 597.44 919.42 493.19 1085.01 493.19C1250.6 493.19 1384.83 597.43 1384.83 763.02C1384.83 928.61 1250.59 1062.84 1085.01 1062.84Z" fill="url(#paint19_radial_10098_59238)" fill-opacity="0.2"></path>
</g>
<g filter="url(#filter6_dddii_10098_59238)">
<path d="M1085.01 463.19C919.42 463.19 785.19 597.43 785.19 763.02C785.19 928.61 919.42 1062.84 1085.01 1062.84C1250.6 1062.84 1384.83 928.6 1384.83 763.02C1384.83 597.44 1250.59 463.19 1085.01 463.19ZM1085.01 920.83C997.85 920.83 927.19 850.18 927.19 763.02C927.19 675.86 997.85 638.2 1085.01 638.2C1172.17 638.2 1242.82 675.86 1242.82 763.02C1242.82 850.18 1172.17 920.83 1085.01 920.83Z" fill="url(#paint20_linear_10098_59238)"></path>
<path d="M1085.01 463.19C919.42 463.19 785.19 597.43 785.19 763.02C785.19 928.61 919.42 1062.84 1085.01 1062.84C1250.6 1062.84 1384.83 928.6 1384.83 763.02C1384.83 597.44 1250.59 463.19 1085.01 463.19ZM1085.01 920.83C997.85 920.83 927.19 850.18 927.19 763.02C927.19 675.86 997.85 638.2 1085.01 638.2C1172.17 638.2 1242.82 675.86 1242.82 763.02C1242.82 850.18 1172.17 920.83 1085.01 920.83Z" fill="url(#paint21_radial_10098_59238)" fill-opacity="0.2"></path>
</g>
<g filter="url(#filter7_dddii_10098_59238)">
<path d="M1242.82 763.02C1242.82 850.18 1172.17 920.83 1085.01 920.83C997.85 920.83 927.19 850.18 927.19 763.02C927.19 675.86 997.85 605.2 1085.01 605.2C1172.17 605.2 1242.82 675.86 1242.82 763.02Z" fill="url(#paint22_linear_10098_59238)"></path>
<path d="M1242.82 763.02C1242.82 850.18 1172.17 920.83 1085.01 920.83C997.85 920.83 927.19 850.18 927.19 763.02C927.19 675.86 997.85 605.2 1085.01 605.2C1172.17 605.2 1242.82 675.86 1242.82 763.02Z" fill="url(#paint23_radial_10098_59238)" fill-opacity="0.2"></path>
</g>
<g filter="url(#filter8_if_10098_59238)">
<path fill-rule="evenodd" clip-rule="evenodd" d="M1085.02 1362C1415.84 1362 1684 1093.84 1684 763.019C1684 432.196 1415.84 164 1085.02 164C754.196 164 486 432.196 486 763.019C486 1093.84 754.196 1362 1085.02 1362ZM1085.02 1347C1407.56 1347 1669 1085.56 1669 763.019C1669 440.48 1407.56 179 1085.02 179C762.48 179 501 440.48 501 763.019C501 1085.56 762.48 1347 1085.02 1347Z" fill="#232B43"></path>
</g>
<g filter="url(#filter9_if_10098_59238)">
<path fill-rule="evenodd" clip-rule="evenodd" d="M1085.02 1526C1506.42 1526 1848 1184.42 1848 763.025C1848 341.626 1506.42 0 1085.02 0C663.626 0 322 341.626 322 763.025C322 1184.42 663.626 1526 1085.02 1526ZM1085.02 1497C1490.41 1497 1819 1168.41 1819 763.024C1819 357.641 1490.41 29 1085.02 29C679.641 29 351 357.641 351 763.024C351 1168.41 679.641 1497 1085.02 1497Z" fill="#232B43"></path>
</g>
<g filter="url(#filter10_if_10098_59238)">
<path fill-rule="evenodd" clip-rule="evenodd" d="M1085.03 1696C1600.32 1696 2018 1283.69 2018 775.03C2018 266.368 1600.32 -146 1085.03 -146C569.741 -146 152 266.368 152 775.03C152 1283.69 569.741 1696 1085.03 1696ZM1085.03 1663C1582.09 1663 1985 1260.09 1985 763.029C1985 265.966 1582.09 -137 1085.03 -137C587.966 -137 185 265.966 185 763.029C185 1260.09 587.966 1663 1085.03 1663Z" fill="#232B43"></path>
</g>
<g filter="url(#filter11_if_10098_59238)">
<path fill-rule="evenodd" clip-rule="evenodd" d="M2313.25 996.088C2202.22 1573.2 1694.57 2009.14 1085.04 2009.14C475.5 2009.14 -32.2254 1573.19 -143.257 996.056C-40.7258 1588.09 470.203 2038 1085.04 2038C1699.87 2038 2210.72 1588.1 2313.25 996.088Z" fill="#232B43"></path>
</g>
<g filter="url(#filter12_if_10098_59238)">
<path fill-rule="evenodd" clip-rule="evenodd" d="M1085.03 1848C1684.27 1848 2170 1362.27 2170 763.035C2170 163.798 1684.27 -322 1085.03 -322C485.798 -322 0 163.798 0 763.035C0 1362.27 485.798 1848 1085.03 1848ZM1085.03 1839.53C1679.59 1839.53 2161.53 1357.59 2161.53 763.035C2161.53 168.477 1679.59 -313.527 1085.03 -313.527C490.477 -313.527 8.47267 168.477 8.47267 763.035C8.47267 1357.59 490.477 1839.53 1085.03 1839.53Z" fill="#232B43"></path>
</g>
<g filter="url(#filter13_f_10098_59238)">
<path d="M1819 763.024C1819 1168.41 1490.41 1497 1085.02 1497C679.641 1497 351 1168.41 351 763.024C351 357.641 679.641 29 1085.02 29C1490.41 29 1819 357.641 1819 763.024Z" stroke="url(#paint24_linear_10098_59238)" stroke-width="5"></path>
</g>
<g filter="url(#filter14_f_10098_59238)">
<path d="M1985 763.029C1985 1260.09 1582.09 1663 1085.03 1663C587.966 1663 185 1260.09 185 763.029C185 265.966 587.966 -137 1085.03 -137C1582.09 -137 1985 265.966 1985 763.029Z" stroke="url(#paint25_linear_10098_59238)" stroke-width="5"></path>
</g>
<g filter="url(#filter15_f_10098_59238)">
<path d="M2154 763.034C2154 1353.43 1675.43 1832 1085.03 1832C494.634 1832 16 1353.43 16 763.034C16 172.634 494.634 -306 1085.03 -306C1675.43 -306 2154 172.634 2154 763.034Z" stroke="url(#paint26_linear_10098_59238)" stroke-width="5"></path>
</g>
<g filter="url(#filter16_f_10098_59238)">
<path d="M2332 763.04C2332 1451.75 1773.75 2010 1085.04 2010C396.332 2010 -162 1451.75 -162 763.04C-162 74.3316 396.332 -484 1085.04 -484C1773.75 -484 2332 74.3316 2332 763.04Z" stroke="url(#paint27_linear_10098_59238)" stroke-width="5"></path>
</g>
<g filter="url(#filter17_f_10098_59238)">
<path d="M1669 763.019C1669 1085.56 1407.56 1347 1085.02 1347C762.48 1347 501 1085.56 501 763.019C501 440.48 762.48 179 1085.02 179C1407.56 179 1669 440.48 1669 763.019Z" stroke="url(#paint28_linear_10098_59238)" stroke-width="5"></path>
</g>
</g>
<defs>
<filter id="filter0_i_10098_59238" x="184.83" y="-141.16" width="1800.36" height="929.18" filterUnits="userSpaceOnUse" color-interpolation-filters="sRGB">
<feFlood flood-opacity="0" result="BackgroundImageFix"></feFlood>
<feBlend mode="normal" in="SourceGraphic" in2="BackgroundImageFix" result="shape"></feBlend>
<feColorMatrix in="SourceAlpha" type="matrix" values="0 0 0 0 0 0 0 0 0 0 0 0 0 0 0 0 0 0 127 0" result="hardAlpha"></feColorMatrix>
<feOffset dy="-10"></feOffset>
<feGaussianBlur stdDeviation="2"></feGaussianBlur>
<feComposite in2="hardAlpha" operator="arithmetic" k2="-1" k3="1"></feComposite>
<feColorMatrix type="matrix" values="0 0 0 0 0.137206 0 0 0 0 0.163665 0 0 0 0 0.282731 0 0 0 1 0"></feColorMatrix>
<feBlend mode="normal" in2="shape" result="effect1_innerShadow_10098_59238"></feBlend>
</filter>
<filter id="filter1_i_10098_59238" x="351" y="25" width="1468" height="1472" filterUnits="userSpaceOnUse" color-interpolation-filters="sRGB">
<feFlood flood-opacity="0" result="BackgroundImageFix"></feFlood>
<feBlend mode="normal" in="SourceGraphic" in2="BackgroundImageFix" result="shape"></feBlend>
<feColorMatrix in="SourceAlpha" type="matrix" values="0 0 0 0 0 0 0 0 0 0 0 0 0 0 0 0 0 0 127 0" result="hardAlpha"></feColorMatrix>
<feOffset dy="-10"></feOffset>
<feGaussianBlur stdDeviation="2"></feGaussianBlur>
<feComposite in2="hardAlpha" operator="arithmetic" k2="-1" k3="1"></feComposite>
<feColorMatrix type="matrix" values="0 0 0 0 0.101961 0 0 0 0 0.117647 0 0 0 0 0.188235 0 0 0 1 0"></feColorMatrix>
<feBlend mode="normal" in2="shape" result="effect1_innerShadow_10098_59238"></feBlend>
</filter>
<filter id="filter2_i_10098_59238" x="351.26" y="25" width="1467.5" height="767.76" filterUnits="userSpaceOnUse" color-interpolation-filters="sRGB">
<feFlood flood-opacity="0" result="BackgroundImageFix"></feFlood>
<feBlend mode="normal" in="SourceGraphic" in2="BackgroundImageFix" result="shape"></feBlend>
<feColorMatrix in="SourceAlpha" type="matrix" values="0 0 0 0 0 0 0 0 0 0 0 0 0 0 0 0 0 0 127 0" result="hardAlpha"></feColorMatrix>
<feOffset dy="-10"></feOffset>
<feGaussianBlur stdDeviation="2"></feGaussianBlur>
<feComposite in2="hardAlpha" operator="arithmetic" k2="-1" k3="1"></feComposite>
<feColorMatrix type="matrix" values="0 0 0 0 0.137206 0 0 0 0 0.163665 0 0 0 0 0.282731 0 0 0 1 0"></feColorMatrix>
<feBlend mode="normal" in2="shape" result="effect1_innerShadow_10098_59238"></feBlend>
</filter>
<filter id="filter3_i_10098_59238" x="501.19" y="175.2" width="1167.63" height="1171.63" filterUnits="userSpaceOnUse" color-interpolation-filters="sRGB">
<feFlood flood-opacity="0" result="BackgroundImageFix"></feFlood>
<feBlend mode="normal" in="SourceGraphic" in2="BackgroundImageFix" result="shape"></feBlend>
<feColorMatrix in="SourceAlpha" type="matrix" values="0 0 0 0 0 0 0 0 0 0 0 0 0 0 0 0 0 0 127 0" result="hardAlpha"></feColorMatrix>
<feOffset dy="-10"></feOffset>
<feGaussianBlur stdDeviation="2"></feGaussianBlur>
<feComposite in2="hardAlpha" operator="arithmetic" k2="-1" k3="1"></feComposite>
<feColorMatrix type="matrix" values="0 0 0 0 0.141176 0 0 0 0 0.164706 0 0 0 0 0.282353 0 0 0 1 0"></feColorMatrix>
<feBlend mode="normal" in2="shape" result="effect1_innerShadow_10098_59238"></feBlend>
</filter>
<filter id="filter4_if_10098_59238" x="497.19" y="175.2" width="1175.63" height="605.32" filterUnits="userSpaceOnUse" color-interpolation-filters="sRGB">
<feFlood flood-opacity="0" result="BackgroundImageFix"></feFlood>
<feBlend mode="normal" in="SourceGraphic" in2="BackgroundImageFix" result="shape"></feBlend>
<feColorMatrix in="SourceAlpha" type="matrix" values="0 0 0 0 0 0 0 0 0 0 0 0 0 0 0 0 0 0 127 0" result="hardAlpha"></feColorMatrix>
<feOffset dy="-10"></feOffset>
<feGaussianBlur stdDeviation="2"></feGaussianBlur>
<feComposite in2="hardAlpha" operator="arithmetic" k2="-1" k3="1"></feComposite>
<feColorMatrix type="matrix" values="0 0 0 0 0.137206 0 0 0 0 0.163665 0 0 0 0 0.282731 0 0 0 1 0"></feColorMatrix>
<feBlend mode="normal" in2="shape" result="effect1_innerShadow_10098_59238"></feBlend>
<feGaussianBlur stdDeviation="2" result="effect2_foregroundBlur_10098_59238"></feGaussianBlur>
</filter>
<filter id="filter5_ddii_10098_59238" x="587.67" y="283.68" width="994.67" height="994.67" filterUnits="userSpaceOnUse" color-interpolation-filters="sRGB">
<feFlood flood-opacity="0" result="BackgroundImageFix"></feFlood>
<feColorMatrix in="SourceAlpha" type="matrix" values="0 0 0 0 0 0 0 0 0 0 0 0 0 0 0 0 0 0 127 0" result="hardAlpha"></feColorMatrix>
<feOffset dy="58"></feOffset>
<feGaussianBlur stdDeviation="5.5"></feGaussianBlur>
<feComposite in2="hardAlpha" operator="out"></feComposite>
<feColorMatrix type="matrix" values="0 0 0 0 0.0941176 0 0 0 0 0.109804 0 0 0 0 0.176471 0 0 0 1 0"></feColorMatrix>
<feBlend mode="normal" in2="BackgroundImageFix" result="effect1_dropShadow_10098_59238"></feBlend>
<feColorMatrix in="SourceAlpha" type="matrix" values="0 0 0 0 0 0 0 0 0 0 0 0 0 0 0 0 0 0 127 0" result="hardAlpha"></feColorMatrix>
<feOffset dy="18"></feOffset>
<feGaussianBlur stdDeviation="27"></feGaussianBlur>
<feComposite in2="hardAlpha" operator="out"></feComposite>
<feColorMatrix type="matrix" values="0 0 0 0 0.101961 0 0 0 0 0.121569 0 0 0 0 0.196078 0 0 0 1 0"></feColorMatrix>
<feBlend mode="normal" in2="effect1_dropShadow_10098_59238" result="effect2_dropShadow_10098_59238"></feBlend>
<feBlend mode="normal" in="SourceGraphic" in2="effect2_dropShadow_10098_59238" result="shape"></feBlend>
<feColorMatrix in="SourceAlpha" type="matrix" values="0 0 0 0 0 0 0 0 0 0 0 0 0 0 0 0 0 0 127 0" result="hardAlpha"></feColorMatrix>
<feOffset dy="-10"></feOffset>
<feGaussianBlur stdDeviation="2"></feGaussianBlur>
<feComposite in2="hardAlpha" operator="arithmetic" k2="-1" k3="1"></feComposite>
<feColorMatrix type="matrix" values="0 0 0 0 0.0941176 0 0 0 0 0.113725 0 0 0 0 0.184314 0 0 0 1 0"></feColorMatrix>
<feBlend mode="normal" in2="shape" result="effect3_innerShadow_10098_59238"></feBlend>
<feColorMatrix in="SourceAlpha" type="matrix" values="0 0 0 0 0 0 0 0 0 0 0 0 0 0 0 0 0 0 127 0" result="hardAlpha"></feColorMatrix>
<feOffset dy="10"></feOffset>
<feGaussianBlur stdDeviation="2"></feGaussianBlur>
<feComposite in2="hardAlpha" operator="arithmetic" k2="-1" k3="1"></feComposite>
<feColorMatrix type="matrix" values="0 0 0 0 0.160784 0 0 0 0 0.211765 0 0 0 0 0.392157 0 0 0 1 0"></feColorMatrix>
<feBlend mode="normal" in2="effect3_innerShadow_10098_59238" result="effect4_innerShadow_10098_59238"></feBlend>
</filter>
<filter id="filter6_dddii_10098_59238" x="731.19" y="427.19" width="707.64" height="724.65" filterUnits="userSpaceOnUse" color-interpolation-filters="sRGB">
<feFlood flood-opacity="0" result="BackgroundImageFix"></feFlood>
<feColorMatrix in="SourceAlpha" type="matrix" values="0 0 0 0 0 0 0 0 0 0 0 0 0 0 0 0 0 0 127 0" result="hardAlpha"></feColorMatrix>
<feOffset dy="78"></feOffset>
<feGaussianBlur stdDeviation="5.5"></feGaussianBlur>
<feComposite in2="hardAlpha" operator="out"></feComposite>
<feColorMatrix type="matrix" values="0 0 0 0 0.0941176 0 0 0 0 0.109804 0 0 0 0 0.176471 0 0 0 1 0"></feColorMatrix>
<feBlend mode="normal" in2="BackgroundImageFix" result="effect1_dropShadow_10098_59238"></feBlend>
<feColorMatrix in="SourceAlpha" type="matrix" values="0 0 0 0 0 0 0 0 0 0 0 0 0 0 0 0 0 0 127 0" result="hardAlpha"></feColorMatrix>
<feOffset dy="58"></feOffset>
<feGaussianBlur stdDeviation="5.5"></feGaussianBlur>
<feComposite in2="hardAlpha" operator="out"></feComposite>
<feColorMatrix type="matrix" values="0 0 0 0 0.0941176 0 0 0 0 0.109804 0 0 0 0 0.176471 0 0 0 1 0"></feColorMatrix>
<feBlend mode="normal" in2="effect1_dropShadow_10098_59238" result="effect2_dropShadow_10098_59238"></feBlend>
<feColorMatrix in="SourceAlpha" type="matrix" values="0 0 0 0 0 0 0 0 0 0 0 0 0 0 0 0 0 0 127 0" result="hardAlpha"></feColorMatrix>
<feOffset dy="18"></feOffset>
<feGaussianBlur stdDeviation="27"></feGaussianBlur>
<feComposite in2="hardAlpha" operator="out"></feComposite>
<feColorMatrix type="matrix" values="0 0 0 0 0.101961 0 0 0 0 0.121569 0 0 0 0 0.196078 0 0 0 1 0"></feColorMatrix>
<feBlend mode="normal" in2="effect2_dropShadow_10098_59238" result="effect3_dropShadow_10098_59238"></feBlend>
<feBlend mode="normal" in="SourceGraphic" in2="effect3_dropShadow_10098_59238" result="shape"></feBlend>
<feColorMatrix in="SourceAlpha" type="matrix" values="0 0 0 0 0 0 0 0 0 0 0 0 0 0 0 0 0 0 127 0" result="hardAlpha"></feColorMatrix>
<feOffset dy="-10"></feOffset>
<feGaussianBlur stdDeviation="2"></feGaussianBlur>
<feComposite in2="hardAlpha" operator="arithmetic" k2="-1" k3="1"></feComposite>
<feColorMatrix type="matrix" values="0 0 0 0 0.0941176 0 0 0 0 0.113725 0 0 0 0 0.184314 0 0 0 1 0"></feColorMatrix>
<feBlend mode="normal" in2="shape" result="effect4_innerShadow_10098_59238"></feBlend>
<feColorMatrix in="SourceAlpha" type="matrix" values="0 0 0 0 0 0 0 0 0 0 0 0 0 0 0 0 0 0 127 0" result="hardAlpha"></feColorMatrix>
<feOffset dy="10"></feOffset>
<feGaussianBlur stdDeviation="2"></feGaussianBlur>
<feComposite in2="hardAlpha" operator="arithmetic" k2="-1" k3="1"></feComposite>
<feColorMatrix type="matrix" values="0 0 0 0 0.160784 0 0 0 0 0.211765 0 0 0 0 0.392157 0 0 0 1 0"></feColorMatrix>
<feBlend mode="normal" in2="effect4_innerShadow_10098_59238" result="effect5_innerShadow_10098_59238"></feBlend>
</filter>
<filter id="filter7_dddii_10098_59238" x="873.19" y="569.2" width="423.63" height="460.63" filterUnits="userSpaceOnUse" color-interpolation-filters="sRGB">
<feFlood flood-opacity="0" result="BackgroundImageFix"></feFlood>
<feColorMatrix in="SourceAlpha" type="matrix" values="0 0 0 0 0 0 0 0 0 0 0 0 0 0 0 0 0 0 127 0" result="hardAlpha"></feColorMatrix>
<feOffset dy="98"></feOffset>
<feGaussianBlur stdDeviation="5.5"></feGaussianBlur>
<feComposite in2="hardAlpha" operator="out"></feComposite>
<feColorMatrix type="matrix" values="0 0 0 0 0.0941176 0 0 0 0 0.109804 0 0 0 0 0.176471 0 0 0 1 0"></feColorMatrix>
<feBlend mode="normal" in2="BackgroundImageFix" result="effect1_dropShadow_10098_59238"></feBlend>
<feColorMatrix in="SourceAlpha" type="matrix" values="0 0 0 0 0 0 0 0 0 0 0 0 0 0 0 0 0 0 127 0" result="hardAlpha"></feColorMatrix>
<feOffset dy="58"></feOffset>
<feGaussianBlur stdDeviation="5.5"></feGaussianBlur>
<feComposite in2="hardAlpha" operator="out"></feComposite>
<feColorMatrix type="matrix" values="0 0 0 0 0.0941176 0 0 0 0 0.109804 0 0 0 0 0.176471 0 0 0 1 0"></feColorMatrix>
<feBlend mode="normal" in2="effect1_dropShadow_10098_59238" result="effect2_dropShadow_10098_59238"></feBlend>
<feColorMatrix in="SourceAlpha" type="matrix" values="0 0 0 0 0 0 0 0 0 0 0 0 0 0 0 0 0 0 127 0" result="hardAlpha"></feColorMatrix>
<feOffset dy="18"></feOffset>
<feGaussianBlur stdDeviation="27"></feGaussianBlur>
<feComposite in2="hardAlpha" operator="out"></feComposite>
<feColorMatrix type="matrix" values="0 0 0 0 0.101961 0 0 0 0 0.121569 0 0 0 0 0.196078 0 0 0 1 0"></feColorMatrix>
<feBlend mode="normal" in2="effect2_dropShadow_10098_59238" result="effect3_dropShadow_10098_59238"></feBlend>
<feBlend mode="normal" in="SourceGraphic" in2="effect3_dropShadow_10098_59238" result="shape"></feBlend>
<feColorMatrix in="SourceAlpha" type="matrix" values="0 0 0 0 0 0 0 0 0 0 0 0 0 0 0 0 0 0 127 0" result="hardAlpha"></feColorMatrix>
<feOffset dy="-10"></feOffset>
<feGaussianBlur stdDeviation="2"></feGaussianBlur>
<feComposite in2="hardAlpha" operator="arithmetic" k2="-1" k3="1"></feComposite>
<feColorMatrix type="matrix" values="0 0 0 0 0.0941176 0 0 0 0 0.113725 0 0 0 0 0.184314 0 0 0 1 0"></feColorMatrix>
<feBlend mode="normal" in2="shape" result="effect4_innerShadow_10098_59238"></feBlend>
<feColorMatrix in="SourceAlpha" type="matrix" values="0 0 0 0 0 0 0 0 0 0 0 0 0 0 0 0 0 0 127 0" result="hardAlpha"></feColorMatrix>
<feOffset dy="10"></feOffset>
<feGaussianBlur stdDeviation="2"></feGaussianBlur>
<feComposite in2="hardAlpha" operator="arithmetic" k2="-1" k3="1"></feComposite>
<feColorMatrix type="matrix" values="0 0 0 0 0.159089 0 0 0 0 0.210205 0 0 0 0 0.393148 0 0 0 1 0"></feColorMatrix>
<feBlend mode="normal" in2="effect4_innerShadow_10098_59238" result="effect5_innerShadow_10098_59238"></feBlend>
</filter>
<filter id="filter8_if_10098_59238" x="482" y="151" width="1206" height="1215" filterUnits="userSpaceOnUse" color-interpolation-filters="sRGB">
<feFlood flood-opacity="0" result="BackgroundImageFix"></feFlood>
<feBlend mode="normal" in="SourceGraphic" in2="BackgroundImageFix" result="shape"></feBlend>
<feColorMatrix in="SourceAlpha" type="matrix" values="0 0 0 0 0 0 0 0 0 0 0 0 0 0 0 0 0 0 127 0" result="hardAlpha"></feColorMatrix>
<feOffset dy="-13"></feOffset>
<feGaussianBlur stdDeviation="17"></feGaussianBlur>
<feComposite in2="hardAlpha" operator="arithmetic" k2="-1" k3="1"></feComposite>
<feColorMatrix type="matrix" values="0 0 0 0 0.222184 0 0 0 0 0.281393 0 0 0 0 0.490902 0 0 0 0.4 0"></feColorMatrix>
<feBlend mode="normal" in2="shape" result="effect1_innerShadow_10098_59238"></feBlend>
<feGaussianBlur stdDeviation="2" result="effect2_foregroundBlur_10098_59238"></feGaussianBlur>
</filter>
<filter id="filter9_if_10098_59238" x="318" y="-13" width="1534" height="1543" filterUnits="userSpaceOnUse" color-interpolation-filters="sRGB">
<feFlood flood-opacity="0" result="BackgroundImageFix"></feFlood>
<feBlend mode="normal" in="SourceGraphic" in2="BackgroundImageFix" result="shape"></feBlend>
<feColorMatrix in="SourceAlpha" type="matrix" values="0 0 0 0 0 0 0 0 0 0 0 0 0 0 0 0 0 0 127 0" result="hardAlpha"></feColorMatrix>
<feOffset dy="-13"></feOffset>
<feGaussianBlur stdDeviation="17"></feGaussianBlur>
<feComposite in2="hardAlpha" operator="arithmetic" k2="-1" k3="1"></feComposite>
<feColorMatrix type="matrix" values="0 0 0 0 0.222184 0 0 0 0 0.281393 0 0 0 0 0.490902 0 0 0 0.4 0"></feColorMatrix>
<feBlend mode="normal" in2="shape" result="effect1_innerShadow_10098_59238"></feBlend>
<feGaussianBlur stdDeviation="2" result="effect2_foregroundBlur_10098_59238"></feGaussianBlur>
</filter>
<filter id="filter10_if_10098_59238" x="148" y="-159" width="1874" height="1859" filterUnits="userSpaceOnUse" color-interpolation-filters="sRGB">
<feFlood flood-opacity="0" result="BackgroundImageFix"></feFlood>
<feBlend mode="normal" in="SourceGraphic" in2="BackgroundImageFix" result="shape"></feBlend>
<feColorMatrix in="SourceAlpha" type="matrix" values="0 0 0 0 0 0 0 0 0 0 0 0 0 0 0 0 0 0 127 0" result="hardAlpha"></feColorMatrix>
<feOffset dy="-13"></feOffset>
<feGaussianBlur stdDeviation="17"></feGaussianBlur>
<feComposite in2="hardAlpha" operator="arithmetic" k2="-1" k3="1"></feComposite>
<feColorMatrix type="matrix" values="0 0 0 0 0.222184 0 0 0 0 0.281393 0 0 0 0 0.490902 0 0 0 0.4 0"></feColorMatrix>
<feBlend mode="normal" in2="shape" result="effect1_innerShadow_10098_59238"></feBlend>
<feGaussianBlur stdDeviation="2" result="effect2_foregroundBlur_10098_59238"></feGaussianBlur>
</filter>
<filter id="filter11_if_10098_59238" x="-147.257" y="983.056" width="2464.51" height="1058.94" filterUnits="userSpaceOnUse" color-interpolation-filters="sRGB">
<feFlood flood-opacity="0" result="BackgroundImageFix"></feFlood>
<feBlend mode="normal" in="SourceGraphic" in2="BackgroundImageFix" result="shape"></feBlend>
<feColorMatrix in="SourceAlpha" type="matrix" values="0 0 0 0 0 0 0 0 0 0 0 0 0 0 0 0 0 0 127 0" result="hardAlpha"></feColorMatrix>
<feOffset dy="-13"></feOffset>
<feGaussianBlur stdDeviation="17"></feGaussianBlur>
<feComposite in2="hardAlpha" operator="arithmetic" k2="-1" k3="1"></feComposite>
<feColorMatrix type="matrix" values="0 0 0 0 0.222184 0 0 0 0 0.281393 0 0 0 0 0.490902 0 0 0 0.4 0"></feColorMatrix>
<feBlend mode="normal" in2="shape" result="effect1_innerShadow_10098_59238"></feBlend>
<feGaussianBlur stdDeviation="2" result="effect2_foregroundBlur_10098_59238"></feGaussianBlur>
</filter>
<filter id="filter12_if_10098_59238" x="-4" y="-335" width="2178" height="2187" filterUnits="userSpaceOnUse" color-interpolation-filters="sRGB">
<feFlood flood-opacity="0" result="BackgroundImageFix"></feFlood>
<feBlend mode="normal" in="SourceGraphic" in2="BackgroundImageFix" result="shape"></feBlend>
<feColorMatrix in="SourceAlpha" type="matrix" values="0 0 0 0 0 0 0 0 0 0 0 0 0 0 0 0 0 0 127 0" result="hardAlpha"></feColorMatrix>
<feOffset dy="-13"></feOffset>
<feGaussianBlur stdDeviation="17"></feGaussianBlur>
<feComposite in2="hardAlpha" operator="arithmetic" k2="-1" k3="1"></feComposite>
<feColorMatrix type="matrix" values="0 0 0 0 0.222184 0 0 0 0 0.281393 0 0 0 0 0.490902 0 0 0 0.4 0"></feColorMatrix>
<feBlend mode="normal" in2="shape" result="effect1_innerShadow_10098_59238"></feBlend>
<feGaussianBlur stdDeviation="2" result="effect2_foregroundBlur_10098_59238"></feGaussianBlur>
</filter>
<filter id="filter13_f_10098_59238" x="344.5" y="22.5" width="1481" height="1481" filterUnits="userSpaceOnUse" color-interpolation-filters="sRGB">
<feFlood flood-opacity="0" result="BackgroundImageFix"></feFlood>
<feBlend mode="normal" in="SourceGraphic" in2="BackgroundImageFix" result="shape"></feBlend>
<feGaussianBlur stdDeviation="2" result="effect1_foregroundBlur_10098_59238"></feGaussianBlur>
</filter>
<filter id="filter14_f_10098_59238" x="178.5" y="-143.5" width="1813" height="1813" filterUnits="userSpaceOnUse" color-interpolation-filters="sRGB">
<feFlood flood-opacity="0" result="BackgroundImageFix"></feFlood>
<feBlend mode="normal" in="SourceGraphic" in2="BackgroundImageFix" result="shape"></feBlend>
<feGaussianBlur stdDeviation="2" result="effect1_foregroundBlur_10098_59238"></feGaussianBlur>
</filter>
<filter id="filter15_f_10098_59238" x="9.5" y="-312.5" width="2151" height="2151" filterUnits="userSpaceOnUse" color-interpolation-filters="sRGB">
<feFlood flood-opacity="0" result="BackgroundImageFix"></feFlood>
<feBlend mode="normal" in="SourceGraphic" in2="BackgroundImageFix" result="shape"></feBlend>
<feGaussianBlur stdDeviation="2" result="effect1_foregroundBlur_10098_59238"></feGaussianBlur>
</filter>
<filter id="filter16_f_10098_59238" x="-168.5" y="-490.5" width="2507" height="2507" filterUnits="userSpaceOnUse" color-interpolation-filters="sRGB">
<feFlood flood-opacity="0" result="BackgroundImageFix"></feFlood>
<feBlend mode="normal" in="SourceGraphic" in2="BackgroundImageFix" result="shape"></feBlend>
<feGaussianBlur stdDeviation="2" result="effect1_foregroundBlur_10098_59238"></feGaussianBlur>
</filter>
<filter id="filter17_f_10098_59238" x="494.5" y="172.5" width="1181" height="1181" filterUnits="userSpaceOnUse" color-interpolation-filters="sRGB">
<feFlood flood-opacity="0" result="BackgroundImageFix"></feFlood>
<feBlend mode="normal" in="SourceGraphic" in2="BackgroundImageFix" result="shape"></feBlend>
<feGaussianBlur stdDeviation="2" result="effect1_foregroundBlur_10098_59238"></feGaussianBlur>
</filter>
<radialGradient id="paint0_radial_10098_59238" cx="0" cy="0" r="1" gradientTransform="matrix(34.7467 -452.432 2053.16 77.9781 1084.99 1620.32)" gradientUnits="userSpaceOnUse">
<stop stop-color="#191D2F"></stop>
<stop offset="1" stop-color="#1A1E30" stop-opacity="0"></stop>
</radialGradient>
<linearGradient id="paint1_linear_10098_59238" x1="1085.01" y1="-636" x2="1085.01" y2="2162.03" gradientUnits="userSpaceOnUse">
<stop stop-color="#222940"></stop>
<stop offset="1" stop-color="#21283F"></stop>
</linearGradient>
<radialGradient id="paint2_radial_10098_59238" cx="0" cy="0" r="1" gradientUnits="userSpaceOnUse" gradientTransform="translate(1085 2334.97) rotate(-90) scale(484.059 1544.76)">
<stop stop-color="#191D2F"></stop>
<stop offset="1" stop-color="#1A1E30" stop-opacity="0"></stop>
</radialGradient>
<linearGradient id="paint3_linear_10098_59238" x1="1085.01" y1="-483.52" x2="1085.01" y2="2009.55" gradientUnits="userSpaceOnUse">
<stop stop-color="#222940"></stop>
<stop offset="1" stop-color="#21283F"></stop>
</linearGradient>
<radialGradient id="paint4_radial_10098_59238" cx="0" cy="0" r="1" gradientUnits="userSpaceOnUse" gradientTransform="translate(1085 2163.64) rotate(-90) scale(431.301 1376.41)">
<stop stop-color="#191D2F"></stop>
<stop offset="1" stop-color="#1A1E30" stop-opacity="0"></stop>
</radialGradient>
<linearGradient id="paint5_linear_10098_59238" x1="1085.01" y1="-305.97" x2="1085.01" y2="1832" gradientUnits="userSpaceOnUse">
<stop stop-color="#222940"></stop>
<stop offset="1" stop-color="#21283F"></stop>
</linearGradient>
<radialGradient id="paint6_radial_10098_59238" cx="0" cy="0" r="1" gradientUnits="userSpaceOnUse" gradientTransform="translate(1085 1964.15) rotate(-90) scale(369.869 1180.35)">
<stop stop-color="#191D2F"></stop>
<stop offset="1" stop-color="#1A1E30" stop-opacity="0"></stop>
</radialGradient>
<radialGradient id="paint7_radial_10098_59238" cx="0" cy="0" r="1" gradientUnits="userSpaceOnUse" gradientTransform="translate(1085 1964.15) rotate(-86.9086) scale(634.794 2025.8)">
<stop stop-color="#191D2F"></stop>
<stop offset="1" stop-color="#1A1E30" stop-opacity="0"></stop>
</radialGradient>
<linearGradient id="paint8_linear_10098_59238" x1="1085.01" y1="-137" x2="1085.01" y2="1663.36" gradientUnits="userSpaceOnUse">
<stop stop-color="#222940"></stop>
<stop offset="1" stop-color="#21283F"></stop>
</linearGradient>
<radialGradient id="paint9_radial_10098_59238" cx="0" cy="0" r="1" gradientUnits="userSpaceOnUse" gradientTransform="translate(1085 1774.64) rotate(-90) scale(311.462 993.962)">
<stop stop-color="#191D2F"></stop>
<stop offset="1" stop-color="#1A1E30" stop-opacity="0"></stop>
</radialGradient>
<radialGradient id="paint10_radial_10098_59238" cx="0" cy="0" r="1" gradientUnits="userSpaceOnUse" gradientTransform="translate(1084.98 -76.0221) rotate(90) scale(1370.57)">
<stop stop-color="#33468A"></stop>
<stop offset="1" stop-color="#33468A" stop-opacity="0"></stop>
</radialGradient>
<radialGradient id="paint11_radial_10098_59238" cx="0" cy="0" r="1" gradientUnits="userSpaceOnUse" gradientTransform="translate(1085 1774.64) rotate(-86.9086) scale(534.552 1705.9)">
<stop stop-color="#191D2F"></stop>
<stop offset="1" stop-color="#1A1E30" stop-opacity="0"></stop>
</radialGradient>
<linearGradient id="paint12_linear_10098_59238" x1="1085" y1="29" x2="1085" y2="1497" gradientUnits="userSpaceOnUse">
<stop stop-color="#222940"></stop>
<stop offset="1" stop-color="#21283F"></stop>
</linearGradient>
<radialGradient id="paint13_radial_10098_59238" cx="0" cy="0" r="1" gradientUnits="userSpaceOnUse" gradientTransform="translate(1084.98 78.7209) rotate(90) scale(1117.56)">
<stop stop-color="#33468A"></stop>
<stop offset="1" stop-color="#33468A" stop-opacity="0"></stop>
</radialGradient>
<radialGradient id="paint14_radial_10098_59238" cx="0" cy="0" r="1" gradientUnits="userSpaceOnUse" gradientTransform="translate(1084.99 1587.74) rotate(-86.9086) scale(435.87 1390.98)">
<stop stop-color="#191D2F"></stop>
<stop offset="1" stop-color="#1A1E30" stop-opacity="0"></stop>
</radialGradient>
<linearGradient id="paint15_linear_10098_59238" x1="1085" y1="179.2" x2="1085" y2="1346.83" gradientUnits="userSpaceOnUse">
<stop stop-color="#222940"></stop>
<stop offset="1" stop-color="#21283F"></stop>
</linearGradient>
<radialGradient id="paint16_radial_10098_59238" cx="0" cy="0" r="1" gradientUnits="userSpaceOnUse" gradientTransform="translate(1084.99 218.747) rotate(90) scale(888.89)">
<stop stop-color="#33468A"></stop>
<stop offset="1" stop-color="#33468A" stop-opacity="0"></stop>
</radialGradient>
<radialGradient id="paint17_radial_10098_59238" cx="0" cy="0" r="1" gradientUnits="userSpaceOnUse" gradientTransform="translate(1085 1419) rotate(-90) scale(202 644.637)">
<stop stop-color="#191D2F"></stop>
<stop offset="1" stop-color="#1A1E30" stop-opacity="0"></stop>
</radialGradient>
<linearGradient id="paint18_linear_10098_59238" x1="1085" y1="319.68" x2="1085" y2="1206.35" gradientUnits="userSpaceOnUse">
<stop stop-color="#222940"></stop>
<stop offset="1" stop-color="#21283F"></stop>
</linearGradient>
<radialGradient id="paint19_radial_10098_59238" cx="0" cy="0" r="1" gradientUnits="userSpaceOnUse" gradientTransform="translate(1084.99 349.711) rotate(90) scale(675.002)">
<stop stop-color="#33468A"></stop>
<stop offset="1" stop-color="#33468A" stop-opacity="0"></stop>
</radialGradient>
<linearGradient id="paint20_linear_10098_59238" x1="1085.01" y1="463.19" x2="1085.01" y2="1062.84" gradientUnits="userSpaceOnUse">
<stop stop-color="#222940"></stop>
<stop offset="1" stop-color="#21283F"></stop>
</linearGradient>
<radialGradient id="paint21_radial_10098_59238" cx="0" cy="0" r="1" gradientUnits="userSpaceOnUse" gradientTransform="translate(1085 483.5) rotate(90) scale(456.5 456.492)">
<stop stop-color="#33468A"></stop>
<stop offset="1" stop-color="#33468A" stop-opacity="0"></stop>
</radialGradient>
<linearGradient id="paint22_linear_10098_59238" x1="1085" y1="605.2" x2="1085" y2="920.83" gradientUnits="userSpaceOnUse">
<stop stop-color="#222940"></stop>
<stop offset="1" stop-color="#21283F"></stop>
</linearGradient>
<radialGradient id="paint23_radial_10098_59238" cx="0" cy="0" r="1" gradientUnits="userSpaceOnUse" gradientTransform="translate(1085 615.89) rotate(90) scale(240.282)">
<stop stop-color="#33468A"></stop>
<stop offset="1" stop-color="#33468A" stop-opacity="0"></stop>
</radialGradient>
<linearGradient id="paint24_linear_10098_59238" x1="1085" y1="29" x2="1085" y2="1497" gradientUnits="userSpaceOnUse">
<stop stop-color="#1A1D30"></stop>
<stop offset="0.39" stop-color="#1A1D30" stop-opacity="0.25"></stop>
<stop offset="1" stop-color="#1A1D30" stop-opacity="0.5"></stop>
</linearGradient>
<linearGradient id="paint25_linear_10098_59238" x1="1085" y1="-137" x2="1085" y2="1663" gradientUnits="userSpaceOnUse">
<stop stop-color="#1A1D30"></stop>
<stop offset="0.39" stop-color="#1A1D30" stop-opacity="0.25"></stop>
<stop offset="1" stop-color="#1A1D30" stop-opacity="0.5"></stop>
</linearGradient>
<linearGradient id="paint26_linear_10098_59238" x1="1085" y1="-306" x2="1085" y2="1832" gradientUnits="userSpaceOnUse">
<stop stop-color="#1A1D30"></stop>
<stop offset="0.39" stop-color="#1A1D30" stop-opacity="0.25"></stop>
<stop offset="1" stop-color="#1A1D30" stop-opacity="0.5"></stop>
</linearGradient>
<linearGradient id="paint27_linear_10098_59238" x1="1085" y1="-484" x2="1085" y2="2010" gradientUnits="userSpaceOnUse">
<stop stop-color="#1A1D30"></stop>
<stop offset="0.39" stop-color="#1A1D30" stop-opacity="0.25"></stop>
<stop offset="1" stop-color="#1A1D30" stop-opacity="0.5"></stop>
</linearGradient>
<linearGradient id="paint28_linear_10098_59238" x1="1085" y1="179" x2="1085" y2="1347" gradientUnits="userSpaceOnUse">
<stop stop-color="#1A1D30"></stop>
<stop offset="0.39" stop-color="#1A1D30" stop-opacity="0.25"></stop>
<stop offset="1" stop-color="#1A1D30" stop-opacity="0.5"></stop>
</linearGradient>
<clipPath id="clip0_10098_59238">
<rect width="2170" height="1526" fill="white"></rect>
</clipPath>
</defs>
</svg>